<mxfile host="Electron" modified="2024-05-07T12:38:10.907Z" agent="Mozilla/5.0 (Windows NT 10.0; Win64; x64) AppleWebKit/537.36 (KHTML, like Gecko) draw.io/21.2.1 Chrome/112.0.5615.87 Electron/24.1.2 Safari/537.36" etag="y8fp6h8YlHaoxDW1J-8I" version="21.2.1" type="device" pages="2">
  <diagram id="C5RBs43oDa-KdzZeNtuy" name="набросок">
    <mxGraphModel dx="1521" dy="573" grid="1" gridSize="10" guides="1" tooltips="1" connect="1" arrows="1" fold="1" page="1" pageScale="1" pageWidth="827" pageHeight="1169" math="0" shadow="0">
      <root>
        <mxCell id="WIyWlLk6GJQsqaUBKTNV-0" />
        <mxCell id="WIyWlLk6GJQsqaUBKTNV-1" parent="WIyWlLk6GJQsqaUBKTNV-0" />
        <mxCell id="62YZL2u1cy57OtuHLEiX-13" value="MosaicHarvisting" style="shape=module;align=left;spacingLeft=20;align=center;verticalAlign=top;whiteSpace=wrap;html=1;" parent="WIyWlLk6GJQsqaUBKTNV-1" vertex="1">
          <mxGeometry x="333.5" y="535" width="160" height="50" as="geometry" />
        </mxCell>
        <mxCell id="62YZL2u1cy57OtuHLEiX-14" value="PicLoader" style="shape=module;align=left;spacingLeft=20;align=center;verticalAlign=top;whiteSpace=wrap;html=1;" parent="WIyWlLk6GJQsqaUBKTNV-1" vertex="1">
          <mxGeometry x="10" y="535" width="180" height="50" as="geometry" />
        </mxCell>
        <mxCell id="62YZL2u1cy57OtuHLEiX-15" value="PicOutput" style="shape=module;align=left;spacingLeft=20;align=center;verticalAlign=top;whiteSpace=wrap;html=1;" parent="WIyWlLk6GJQsqaUBKTNV-1" vertex="1">
          <mxGeometry x="630" y="535" width="100" height="50" as="geometry" />
        </mxCell>
        <mxCell id="62YZL2u1cy57OtuHLEiX-16" value="mainPic, compPics" style="html=1;verticalAlign=bottom;endArrow=open;dashed=1;endSize=8;edgeStyle=elbowEdgeStyle;elbow=vertical;curved=0;rounded=0;exitX=1;exitY=0.5;exitDx=0;exitDy=0;" parent="WIyWlLk6GJQsqaUBKTNV-1" source="62YZL2u1cy57OtuHLEiX-14" target="62YZL2u1cy57OtuHLEiX-13" edge="1">
          <mxGeometry relative="1" as="geometry">
            <mxPoint x="480" y="660" as="sourcePoint" />
            <mxPoint x="400" y="660" as="targetPoint" />
          </mxGeometry>
        </mxCell>
        <mxCell id="62YZL2u1cy57OtuHLEiX-17" value="mainPicByCompPics" style="html=1;verticalAlign=bottom;endArrow=open;dashed=1;endSize=8;edgeStyle=elbowEdgeStyle;elbow=vertical;curved=0;rounded=0;exitX=1;exitY=0.5;exitDx=0;exitDy=0;entryX=0.1;entryY=0.5;entryDx=0;entryDy=0;entryPerimeter=0;" parent="WIyWlLk6GJQsqaUBKTNV-1" source="62YZL2u1cy57OtuHLEiX-13" target="62YZL2u1cy57OtuHLEiX-15" edge="1">
          <mxGeometry relative="1" as="geometry">
            <mxPoint x="480" y="660" as="sourcePoint" />
            <mxPoint x="400" y="660" as="targetPoint" />
          </mxGeometry>
        </mxCell>
        <mxCell id="xkOVCTQS6KTug4YOY89h-0" value="" style="shape=image;verticalLabelPosition=bottom;labelBackgroundColor=default;verticalAlign=top;aspect=fixed;imageAspect=0;image=data:image/png,iVBORw0KGgoAAAANSUhEUgAAA7YAAAJ1CAYAAADt8Ww2AAAAAXNSR0IArs4c6QAAAARnQU1BAACxjwv8YQUAAAAJcEhZcwAADsMAAA7DAcdvqGQAAOHkSURBVHhe7N0NfB3VfeD9v7YsykMjsWSxSBex5PEVmMgkxQK2FmFjJ95KxICBpxJJFtu1bEOCwS0YNpYQEIdYlpyCISWYlAjJi01DImV5d5FSJ1YKkVuMTAkSGHTdUkTLI3nTIrU8EQ/Px885Z87cOzN35r5I8suY3/fzufZ9Gd2ZOXPmzPnPeblFJaecdkgAAAAAAIipf2f/BwAAAAAglghsAQAAAACxRmALAAAAAIg1AlsAAAAAQKwR2AIAAAAAYo3AFgAAAAAQawS2AAAAAIBYI7AFAAAAAMQagS0AAAAAINYIbAEAAAAAsUZgCwAAAACINQJbAAAAAECsEdgCAAAAAGKNwBYAAAAAEGtFJaecdsg+z2nx5VfKfz7zU/ZV2j+89ffy9j/8vfzqb182ry/+/EI5Qy138sn/wbz2euGvdqeWAwAAAAAc+766bIWJBXUsp2O69/7lX+wnx4bfKv4/Pr7BPs/p/7r6KzL5m9/Ie+/9i0xO/ib1OHvOOXKWehSpZT6ngtrP/O55Zvngcqd98pPyG/X3b77xuvkcAAAAAHBsc4NaHcz+5099SspO+6Rp2NSx4ZGiY8xFNZf41qu36eT/8B/Mo6AW2/W3bzAR+s6nn7DvOPQXeVtzX/jFbnlePYKi/h4AAAAAcOzxttTqOE73ztWNmfr5keyJ+/UbbzJx5/e/d58JsHWgq2NQ14yMsdVf7AarultyWFBbuNWybWBY9g97Hq8Pyt7edlm/yC6itT7nX8Y+drbZz1Pq5aE9zmevPLbGvucVsb7nn5T7b1oi5XYph2fZV7rkevuuT127/NWbzjLebWnptX/ne/RIS5Fu7wYAAACAY4Mb1Gq6pVTT8Z4WNuz0cNLx5g+3b0t1gXYDbfcxY5NHuStw/58x7yel74mn5JkneqT/HyalZPZCWdnSLnX2Y9fYy3qZ9KN3r/3AVVcrlac6T4srvyA3OU8zuevr2yfJfxiXE0+dKzU3bpEndqyWM8Jiz5MqZWHIl628skpmRcaqY/KyZ1v1vu07lHfDOQAAAAAcVt6WWh3j6dZR3Vqr39evZ6YxM386oHaDapfeNvdx7M+K/OGo7Pkft8gtt94gK2qWyDNvqfdOPUPmOZ+mjA+vU8ukH/d12w8sE2jqgHLvmApG58mCZvtBkF6f/o5V9bK4plo+W79F+n8tUjL/ZvnT286wC1nj4zIhxXLeFzcEWnTXSO1nS+WDg2Myad/xG5dhtY5bU9u7RQKbCwAAAABHRbD78Q93OC2luguy/l+/d6yJ2c/9JOTEYvXfh79RoWEhnEBTDg7KjscGVXgrUvl7jc5Hufxqq6x4sN8EsJW/d4190zUorx5Q/509TxrOdN7Ryu+slfNOmpTX/n5c/RUAAAAAxEMwqNV0t2M9vtUNaoMtp0eK3oYox35ge0KZzP+Te+Seux+QbbvulZpPTsrYz56WzfbjvNz4Bfn0SSITw3vkmSf3yLCOis+uljs8wWhWnfsk+b76/5NzJRja/uL5QbWNc2XhTdXiDJMtl4YL5oqMD0jP0TneAAAAAFCwsKBWv3a7Hx/NoFZvgzuBlKb/1++5j2M/sD0pIQuuXCKXXVkr1b8zJs80Xy0Xr2m3H6Yl6gKTMdn3tZsWVkqxjMuru9TfHWqXXwypyFYFo1V/WG5+oii3cfl/PlT/nSCZLbB39cjLKugt/2y9qNBW5HPrRK1OxvY9JZ12kUwJqVPb+bq7vb2tNigGAAAAgCNPB4fHalCrva3WrbdNb4umt820JNvHsR/YjvfL5rMWyi2d+2TixIT8/qqlssB+5OWfPKpH9tn3RRplwbkqHH0/KS+rSFNP0dSxN2nGvlZefIOU5xVQnionn6T+Gx+X15w3PLbK7iH1bWdWy4o/EKn+SpWUy4js6+hSn0VNCBWYPKp3IHpRAAAAADiMjvWgVtOTVbnbpult1T/94z5iMsb2HXmm5WbZ8fKkFM+ul/Vt1fb9NP/kUenJmMrvnC+VJ6gnJ82T690W0hvnOS2vs6vlps/ljmzL11dLQn3HxMg+6bfveT3Y3a9C1VlS+aX10nBhuchbA/LnL6hYNTJYDUwedXcXcS0AAACAI07PdHysB7X5KDiw1X2Z9Y/heh96x4PClpueEbnv3h71r0hi8Tq5Ka/xseWy4vy55tnIHk8LqXr0HdBttuVy3h9kBsle5ZdvkPuvmSvFHySl5/sP23cDup+SoYMisy5cJvNPFRnq2xIaAAMAAADAsULHbMGZjuMY1GpFJaeclndj4frbN9hnmfSO64Rx/4/ivROQ3WrZNtAo1SpE3Hz+cumwzZ/XPzYoN11QLGO7muTir3WJtD4n++srTFfkv/ak+b/s75Jv9y6RZ/+yXir+v0HpOOcK/4RTN3bJKzfNk+KRHlmx8Aa1Fru+E5LS1zsoE8WzZPacCknMniXFH45J/z310vCDEduy6tm2qmXSod6pvne3dF5eLkUfDsqO2ivk2/pniey2JbsrZLGdhLmld1jqZuuuyP0mSHeMy+DjG6TjBfsSAAAAAA4zN4h94Re7TVdf3Ripf6/2WAxq9bad+9nzzHbp7dO8DawFBbY6YNUDc4P0F+pI36VX9OorL4cmRP6JEx7YyudaZefD9ZKQpHSvqpXbL39OXq+rcD7zmNjTJmvHlppg84OXt8pn67bYT1xr5EevrJPzThqTvlur5bon7PpK7cfaB+Mytr9fujta5b6n02FoWGArZ7aaIPqMv/WsKzKwdZ6njUt/y/myojPvQwEAAAAA06K7Ies4Tjc+6pjObag8Fltq3RmR9XhavY1uEO4qKLDNRq9Ef7GerUpH+wAAAACAY5f353N0cDv+3r8cs7Gc2zrrDbi9w11nLLAFAAAAAMSH20qrg0W3e29cEdgCAAAAAGItJj/3AwAAAABAOAJbAAAAAECsEdgCAAAAAGKNwBYAAAAAEGsEtgAAAACAWCOwBQAAAADEGoEtAAAAACDWCGwBAAAAALFGYAsAAAAAiDUCWwAAAABArBHYAgAAAABijcAWAAAAABBrBLYAAAAAgFgjsAUAAAAAxFpRySmnHdJPyk76mHkDx7bR939jnwEAAAAAtFRgW3fOGbL1kirzJo5N3a+/LWueG7CvAAAAAAAaXZEBAAAAALFWdN5/+a+mxfaS00+WtZ8uM2/i2PQ3B/9NvvXyP9pXAAAAAAAt1RUZAAAAAIA4oisyAAAAACDWCGwBAAAAALFGYAsAAAAAiDUCWwAAAABArBHYAgAAAABijcAWAAAAABBrBLYAAAAAgFgjsAUAAAAAxBqBLQAAAAAg1ghsAQAAAACxRmALAAAAAIg1AlsAAAAAQKwR2AIAAAAAYo3AFgAAAAAQawS2AAAAAIBYI7AFAAAAAMQagS0AAAAAINYIbAEAAAAAsUZgCwAAAACINQJbAAAAAECsEdgCAAAAAGKNwBYAAAAAEGsEtgAAAACAWCOwBQAAAADEGoEtAAAAACDWCGwBAAAAALFGYAsAAAAAiDUCWwAAAABArBHYAgAAAABijcAWAAAAABBrBLYAAAAAgFgjsAUAAAAAxBqBLQAAAAAg1ghsAQAAAACxRmALAAAAAIg1AlsAAAAAQKwR2AIAAAAAYo3AFgAAAAAQawS2AAAAAIBYI7AFAAAAAMQagS0AAAAAINYIbAEAAAAAsUZgCwAAAACIteMvsP3MUrnj4S750cOtctPl5fbN49FcuebOdvnRY+3SctMSOZ73FAAAAACyKSo55bRD9nn8ndko/2vnaplbbF9/kJTuP7pEmv/y+NlFR7l848nnZNXcj9nXk5LsvkEWN+62rwEAAADgo+MoB7atsnO4XhL2VaQPJmVidFhefeFp+bOH2qX/Lft+UEuPvP7lhBTZl9rYrlvk4q89aV/NnJbeYambbV94DD2yUK66a8S+KsCZ35THe5ZJ5Qn2tWu8XzZXLZMO+9LRKs++WS8V3h09uFtumb9anrEvAQAAAOCjIh5dkU8slpLyuVL95UbZ1jMgj38rouvtP43LpH3qGvuHp+yzI6NywTqpts8LUf3HCzOD2khvy8T79qlLBf4EtQAAAAA+iuI3xvaEUqm8Zos89j9XZwa337tZvvuXb8vkh87Lsb3t8t1NR7hB+swq+e+fs8/zVi8rqgsZJbtVbv3ez2XEDW4P7pOO7262LwAAAADgo+UY64o8Kcm+Hnntn+1LrXiWfHpelSQ+6Q6cdU3Ky9+rla/cNyJHYweiuiJrY31NcvGqLvsqDw3b5cXmaim1L31CuyIDAAAAAFzHWIvtpIw+v05uvXWd3OI+1i6TxRfPlet+sE8m7FKOYjnv8nVSXeQdaHq0jMvEr+1TZdaFV8v19nk+rq+tSge1H0xmdKcGAAAAAESLTVfkvs310tY3Zl9ZZ1bJVwvu9nt4vDfhCUdPqpSFN4lvEqtIZ26QmvPSrdETIyPygX0OAAAAAMgtVmNsu58eFH9oO0vKLrBPj7K3h4ftM61YzvviBinPI7Ktvsk7adSYDDw/ap8DAAAAAPIRr8mjnhiTcfvUUSwln7RPDf0zOMOyXwWZzqNHWnJ2VS6X6ms3yEOP7Za9rwx6/lY9hgZl7+4uuf+miFmYvfb0yMvemYorF8pNn8u17iXS4J00amRAOk8qkxL7MpuNPW/6tnVnm2ddix6Qv/Slw7Ds3bHafphpwZ/+3Lfs/qEnZf2Z9kMAAAAAOMbFb1bkmbSoUTp/3iPb1i+VBReUS8lJgQmqzM8MzZOaG28wY2azh6lbpetFb2truZz35Rw//FN3uVSeap8rI/t2SL99Pi27bpA/f+E9+8JRckG9tIR12z5znVy/4Az7QpuU5OObZXPUbwUDAAAAwDEmXoHtlbMCMwePy+h++7RA5dc8ILvuXy0XnRGcbXnqftLRLyP2uVZ+4Uqps8/DXP8H1TLLPpcPB2X3fTMS1hod33xQ+r3N2yck5PK1a+yLtLrb6uW837YvlMk3npKNt//SvgIAAACAY1+sAtu6y+emA0Htw7fltW32eSE+1yoPNddK+Yn2tTX57qD0PbLFzsi8QR58Yp+MFDKT0wvd8rK3pfPUaqm/0T4POnOD/P55H7Mv1Lpf7pFvz2Qr6Vvtcvsj+3wzLBdfcLXcv8jT8qzSYeWCWenXH47IT+9pkv6j+ANQAAAAAFCo2AS25ddul0YVhHlNvtEvf17wr9iWy/r1SyThC2rH5eUfrJLPXnyFXHfXVnnmiafUY4fcd2u9LPrSOtkx5B/ZG61f7u0btM+1Yvn0xZmtpJqZNOrf2xcq/Hzt+Qft85kzct/N8uiQN7QtlwXXr7OTWpXLTTerdEhNXKWWf+abcssuOSq/CwwAAAAAU3WMB7blUv2lNdLy2G7Zub46MKnSiPR9t01GCo3CPnez1FR6ux9PSrL7Zvny5j77OuCtp+TbS+qlWT3NZ1Ujd/knkSo+r1buyJiIqVrqPluebik92C9dD9jnM2pENn+3R0Y+tC+V4vOWyDcWqTXXbZA6z88MyUiP3HVrRBoAAAAAwDHsGAtsS6W6eVheT83Qu1u23b9O6i4oF/9IWB2MflPWTqF1sfrLVSpc9lBBZUfjTAZ0ehIpz48SnTBXFt4UmESqbpX8nifYHel/WH5yuNpJd62Tu3464vn2clnwR9+UO5Yv9HTrHpO+790ghLUAAAAA4ihek0dpH47L0CNrZPEUg9H/eqb/h3vG/vZp6bbPZ0rw93bLP1sv3tD2+jrPpFGSlD160qjDFNdqfWsfkL6x9AqKK5fK0kr7Qhnbda9cN9OJAAAAAABHSHwCWxXQjv3qKbmrvkquumvqbYul6fmajPF/fso+m0FPPCx/7Z0I6sxqaaizkzaduUFqvF2Ah/rlQbXsYYxrlS752kP9MmFf+fy6Xzq+3mVfAAAAAED8HGOB7aQk+/TETe5DT+C0Tm752hUy55wqufiqdfLor+yixzRnEql0sDpL5tetMZFt+R/Ok8rUhE2T8nLvBt9PBB02b4zIqGesbcrEmBywTwEAAAAgjo65wHb0+XVyq/m5Hfcnd1SAu8s70/DMKv7twPjXGWImkfo3+0IprvyCfF2q5eYFc+07ip406nv2+WFVLRtv88+AnHJmrXxj4+FJAwAAAAA4EuI3xnaaDoz6f7qn/Mwa/2RSM2ar9A39xj5XTqqUhXfUy3meSaPGBntnfHxvmAVtG+TyOZ7fzB3a55kpuVgSV31TWj5nXwIAAABAzHzkAtuO19+2z6zKJbKxwT6fYQ/+pN8ziVSxfLqu1hNEj8hfdx6Bsa2LWmX9koSkwtoPk/L0d66WB/s801udmJDLm1t9E1wBAAAAQFx85AJbaen1/c6s+Ymh/9Ej91we0W575hK546kuaVFPU787m6/uDt8kUsUneSeN2i33vXB4p4wSWSAt65dI4kT7Uhnra5fb1Xq7N3X5f2/37CXyjebD03YNAAAAAIfTRy+wla1yy48GZdK+Mk5MyGX39sjzj7fLHV9fIpddqR9L5aatT8rzf7FFllaW2gUL5UwiFWborzfIyGGOaxe03SaXz/YE0+/vMwHtIb3et7bIfTuTzvtGsVRe84Cs93SVBgAAAIA4+AgGtiIjLTfIfbvG/MGtCuxmfWahLL11i9xzt35skOtr5sosT2vnVIzc1S9DwdmIVYDZ23KYf+Jn0SbTBTkd1k5K8mkVzHpakPsb26XvoH2hnThXrrlnnZxRcNM0AAAAABw9H8nAVo9v7fhavdz26KCMh/0ETpBaRk8DNbVAtE16X/aH0GMv/lgetM8PjwWy8Rv+Lsgysls2N/fbF64uueuxfWbfXMXnrZK7//gM+woAAAAAjn0f0cBWG5FnvnmFXFi7Th7s3Scjv56USW+Q++GkTLyblP4ntsottbXybfv2VDzY7Z1EakT2dRzeSaNMF+REehZkkXHp/583Sp995TVy3/ek721vyF4s5y3fJCvpkgwAAAAgJopKTjntMI/0BAAAAADg8PkIt9gCAAAAAI4HBLYAAAAAgFgjsAUAAAAAxBqBLQAAAAAg1ghsAQAAAACxRmALAAAAAIg1AlsAAAAAQKwR2AIAAAAAYo3AFgAAAAAQawS2AAAAAIBYI7AFAAAAAMQagS0AAAAAINYIbAEAAAAAsUZgCwAAAACINQJbAAAAAECsEdgCAAAAAGKNwBYAAAAAEGsEtgAAAACAWCsqOeW0Q/b5EfM7/+l0+wwAAAAAgOz+6R/fsc/CHZXAFgAAAACAmUJXZAAAAABArBHYAgAAAABijcAWAAAAABBrBLYAAAAAgFgjsAUAAAAAxBqBLQAAAAAg1ghsAQAAAACxRmALAAAAAIg1AlsAAAAAQKwR2AIAAAAAYo3AFgAAAAAQawS2AAAAAIBYI7AFAAAAAMQagS0AAAAAINYIbAEAAAAAsUZgCwAAAACINQJbAAAAAECsEdgCAAAAAGKNwBYAAAAAEGsEtgAAAACAWCOwBQAAAADEGoEtAAAAACDWCGwBAAAAALFWVHLKaYfs8yNq5Y4BWT+/1L7K4kCXnFPbJIeOylYCAAAAAI51R7/F9sNJmXw/5PGB/RwAAAAAgCyOfmD7D0/J7/7uXPnsZwOPp5J2AQAAAAAAojHGFgAAAAAQazEKbFfLtoFh2T88INsaFsj6Hbvlldf1a/UY2C3b1i+wyykN22WveX+7rCwqsm+KLGjrkb/V75vvsG8a7ncHHvrv7RJa+TXflB/tHkiv9/VB2bt7u6y/vNx8vqD1OXnF/K36/mvLxVmzd7vttpyp3vsb5zte6W0Vd8sXrG+XnX8z6Hy3/kzvV/MScb5dpKXXeX9nm9jvdnjfN9T+v6i/I7D9ev9T2+fZ//Jr7pHHnx9IrXf/0IDsvHupVNrPs9FjpV93/859BNbraJWdweX0Q+2/q/zyDfLYX3m2w32Efp9f5fIt8r/UPviOTXej/VTvo/ruLMcuba5cc/eT8vxA+jjo9PjR+ojtt4+dbeqInLlE1j/ck/G3Oi3PsN+eypvBh10uuDWh6RvMv2culXse75e93n3buUWu+Yz9vOGR9Plg3zJC8snGnjfNd6TykubJr97jpXKUfKP9Odk7ZD+LTNNMH+XjlfN8iyi/pnu8pnZ+5Vd+lV/eKH+2U+VBNy/oz/6mR+65xpNCqvwxn6m/OeOaLaqss8u6+fVMzzKhjx5pUYtklHda2D5709F5xxFyPmSWrQvUezZf/I1azm6bOba+c6DcHPPU9nmPl4+bjlEPJ4+k/lqd07f/cLc/PQPXg1De/Lpri1Tbt111D/envm/vjtX2XXUO/cmPZZfn2rP/9QHZtaMxdW1Ky12O5y4XvHnKey3zv2+EpnmA93ja9C+/1k2HQXVM9V6EfLe2aJPstNup08P8+ZTSMISqD5jlPNvuuwZfq0sZXX51had9KmFWS+dL+jzX2x5e9ynKkb/MdkaUK756i3s8POeqL0sHj0dImVR+rT0eNu31n+vy3ld3Ug+TJxalv9w9B/Xf/ehG+6brzA3yeOpvnXIAAMLEssX2jD/cKisvKJWxA0kZe1+9UVou1dfe6wkmQyzaIndemZCP2ZfhxmXkjaQk3520r9P0hfLxby2T88pLpXh8RJJqubEPiqWkvFpW/kmX3F8n8oum1XLfC2Nq6VKpXnuv/PGnwrZGVZh+cLNUf0Jk8q0e2Xxtk/Tpd9XF5f5rF0ri4+Pmu5NvjMgHJ6n9amiV+5uz7Fe+Ft1j9r/YvnQ5+3WFVJ4qzr7r/VLbn7hygzz0Z/V2qWiJslKzbRNvqb99a9x5M8yZxc66Pxgz6xj5tXk37cxGuX/zUpn3O6UyMbJP+p54Sp55Wadlbrqy8NidS2TuJ9Wxsd+fPDgpJ550svlc7+MT31LfneXYOdSx2fljlU5zZVZpsUy+a9PjN2rZU952vlc/3Pzxoc0v+jGiXn+xXuoXJKT0fWcdyQNjMnmiTssm+dPmVKjkeD/p7KN69O51l1snG5f7b1q4Jkb0etRy9nWKqtB3/vibctlnZonY7U3+i0jJ2Uvkzh+0S2rXpkxV3FvWmPzqpyv+W2XVwgo5cdyuV6WLSdPND8h6HQhE+Cgfr1znW2RclLeI4zWN88vPU369u1vus+VXzZevlgWzS+U3Zr/VQx3P4k8k5LLmkLxwUrVs+5YK0D5Qy42oMuMEdbxUfl3/AxUkjww7f6/TRZft2q/t8XljWPRhyxSVR6dKB6v3St1sVWKND8qO25ZLx1v2o4DyazfJmnwmQfQwZaXdR13OT3xoP3DpIL1rgyy7sFxK/l36mlSsr3MNW+SxrbnLZePMKqn7nH1urJbL5qlyIsNS+e9XVqm9tuei3iaVJ8vnr5aW4DUgVzk+jXJhxixqlYdurpYSdfaN7bpXrmvUOTTMArm7qV4SJ9qXYfJOw9x0wHdPnb4Gj8vQIzdLww/eVu8ulWuunBee9t+/2vlDj6i6T+e1H8o75u/VI3UdVvufem/Uvheg6kV3XFmRUS+YMpX2f3bTRb601/N+XrN0iZz3STHbbfKN2kSTJ1p+EHKNKpZPX7zGPneUX18tlSfYFwCQRQwDW1Xoy265pbZKFi2ulYs/u0q6D+jqowom62+Q8tCK4QK55zZVkdIFY7ASYSRExWemEvPopZfI4ueD1ac1cs/aarUGVSnZ0yaL/stCWexd9wmzpGb5BrXuEen4w3rZvEeV2ifNk5UPbVJr9lvQdptcritMv+6X+1bdKI/qCtPnWuUb+uIy3i+bv1Rtvnvx4oVy5Z8Pqg+LpfL3m6R6WjVefQEP2//VslFdMEo/HJFnbnDS0+zXnT9Xl1mRWdVXy03OghGWqIBC/5+UnkXqb3cMqotyhC/OEhO2jOw263j0jUAQfN0XpFJXMFQabF1YL9fduk5uGR43F8WsVIX9piVOwD7Wp47NZ236XVwln13cpN51jl2JehY8dl3J36SPnfq8vPlmufxs9U0fjknf5oXyuxfb9KiaK4sbt8pa/b36ofKH2a73VX6x7639nnrnn/dJ111XyGft3y2uqZb7dF7Qx/D3rtF/kfbhqOzR+6gea7/ysLz0nt3T33L+czk3Dsbl1f+pv3N3RsXeVOj/Y5GMPLFKLlho1zt/g/QdVB+eWi316gBOJ+ekKu6B86Za5WNd8ddpuni+Xe/CJbJ9UO3HiXOl5tbq8CDtsB2vL6TS/UgcrwE3+xZ0vHKfb388raMVfbxCz68333M+y5sn4NPl19JrUwHf6N4fy7fr58rFNTYt598rv9R5WuWF+UsDefCTs2T8B1c66b5QpcPmfpViKtVn10rDv93g/L169L3rLD7xxg659FL93g3yoPOWT+Q+T9Hn29rlJv19KvDu/h9XyMa/tOdmkApAv/11lVcLWq/KGztsGpnHDnnVDeCt6zc7Nw50Gm+217nFF8+V67qGzY2SWV9cKnfkCBAnDuocVS6/t3yJ84Z2Y41Uqd0aOxgoe1X53bdtXepcM9eep3XQpdb1u7VymXlm5SjHo8qFHUPqw2zlwkw5c5Vsa3WC1Yk998pXv94ecTNEXRXv/pZcpm8+Rxy/wtIwB0/Al+y+Wa66ywn4TNp3BtL+Gae8mvW7Nf60z1r3mSMPfsWmt7oOO1s3In3mO2vly81PmXf8nHrRGf9ePZ2Jc0ffkFFpX6GKB532X/laOu2Tu9pT2623Z9FVTzmfnaryxJVmEWtMpa0qC86rlfX2HZWr5OYLEyLqeEzlVhyAj5ZYttgO/fQGeSZ1B71PmncOmQu+nFouvx9SMTQXMFURmHy5R/oDlQijoVzK9P//PCY/NW8ELK+WxEnq/w8HpWup90Kp1t014ARzZ8+T/27WrYLbpTebC07x7Hq5Z4enQ+9ce8dWV5ialknn39sK0+IqSeiLS2m1rN/ldrcZll3L5zqfl5bKOc4zI1E37OvuWDfbfhDBvYBn7P/yBXKuukjLCeVy2Z+lv29/2xfE3JM+qdT8H10PqZbyU9V/46Pq8pzDnDInWBmNWPJ9FbRMxdJqp8J+cLfct/phz7GxvMdumffzPrm9O33sdBhzzX+Z6wRcL2yR635gg6FCPLFFnpZ6eeixHtmpu9kODad/0upjTmtkyklz5Zqdajn12PU3jXLRyUUy8aunpLNTPOtdLafr9FXVlP/9M/NGwFL5/NlOi3n5lQ+nj99wqywwf1csJZ/U/1s6f6WWUY9m52ZNJLfirlKt92f+43bZZ1VFQymZ3yi7Ut+5W5bNdXLLyafYvBt0mI7X19qdinhBpnG8qtViBR+vPM+3FH283nS6Gk/3eE35/PKaawPIYPmlPHPf0yJXtcuPVPrort2vvO7kaa1Yn/heB/ul4zv6pp1j5Adbpf9t/V2lUjbHeS9v2fbZlZHvdYARoVT37NEtWOPSf+8qad7lPb5etpVY7ePIT3tyl395Wyq/p28cKENP+luK+5q6nRsqJ8yVquDNgqDhQRlSwcqs312SahG7/nOVUqzOK5XNA9rlz1+pkJt3PCk7dXfRVwZl11W2x8KJxc610ZWjHI8qF5bay6C/XFABWbP3WuacV6HUtTR1/NTjlb95Uu4IGfIwd6PTcj95oEtuUddqk63C6B5cl5VL0fv7pHdvRJBaUBpmU6oCyHTA529BbpdHg2l/pe2hFUx7JVvdp8a8l7+c9SJNpfvrb6bTfb+qv0Tlu7m214Sb9t6yveOxIalYu10e37lb9qp9fKXH7VJfLCeeYp5Y4zL0typ8VXl8/p02HT5XL+ep7Rz7WzdgB4BoMQxsx+W9f7RPXe/9RiJ/HWjR91RFRRWh6gLWccs+VUvJvNKVzz3DuVj/05AqjEOuhG6rzPvjmXcMVQBkOvmc8DFPpbNPHnxqyBTCJfNrpcr0fy6WqsVOS9TYX7XLg94Kk/v9B/eZro4Zj6f75DXPdrtdLt1HqstemEUPmP3XF3Cz/16p/Up3s/Q/ekT/RVTdQJorxVRjRgalw7wRbWW5U2V/790e83+GHU9Lv+7Wpiqha3a2yz13b5F7KpygLasS27l8fEx+Ms1jV5r6qi7nSYGcLrZLZcF55VL24ZgkB3qkz9xRD3GCCmLKy6VcPWZ93HnrxFPKJeFtiTmzUs7QGzb+tgx6KrhpaoNN96xJSfaFHT/dbdZz/LxdcfUjW9dxVe246Z6bTXAy8hfflLXBRW23sLGXw9f7ZN9g+G9PH67jFZlJox3x45XP+eZNtJk8XmHn11mB4D2rdPk18cqT/vJLdPfTH8udyxfKeZ+apcqnYRn46W5JRpVL6tg/4ztg/TI+pZ93y7HPrgLSsXxhrdOz5a3d0qnyW5Tym+41rbpFIz1yV+SKp8I9p0OucyoIekf3xFAybhZk2CO9L6u8fGqVXGbGlK6TBZUfk8lX+9QnfqZ7/L1r5LL5c6XshDEZGeqP7KaesxwvsFzI2S3blbo27pYh0819riz9Vqt/7PTHquT3zY2pcXntqQfUVTjKArn/Dt2DaVJe7lhnrnHhsqdh3kVO+UL5fV1OfDgifZ3+gM8Mu8gz7UPzRLa6TzbeetGt0Skg77tdpO3DHdYR5Ev7rf601y25XVvk+iurpfKTxTI6MiR7ntkX2fo69ki/SaPKi50eeNVf0d3kR2TfI+ov8k50AB9VsWyxdS+ernJ7F1l3p/EXu6VSe7uqqKh3X+64We5Tlc2wcvGas517h2+/1p694Ay2qGjX2tZeb0Vcj/FZM0+tXXc72i4DprFkUgb+Z5ck1VVo1qIN8pCdVMHvPem33R19j2+2q6pf2sjztXKp7dKjH26XvUxq/+9w93+d2f9QJ/5G3r4/ZL23bpFuu0imcrnj95y770N7HzX/R1si81WQqi5Zkszo5m291S4rVjVJ1yvvScnZC+WyK5fIZedlpHa00llyWbYwON9jp5Se4ul6lrd1smax7mI7KUOdtXKhqiBftfQG2TMaUREY75f73J+2qrxCtu8/JMWqArTmrqXprnpLEyqVlZw3DtRa39oScvzUMfceQE9XXPNIdVnLVFxxr6w8r1itW1fco6uI8t6e0PV++wfeHBtipo9Xlq8KN73jteMNlUZTPV75nm/6eOmhETNxvKZ7fnnKr5ILbvCXXzfd6AyvUNvb8SXd3fAKWbF2j/zf/29EYfpbxSqdvAfMbelW/j/7fx7yzqMZ+f7VyCETIzvvlf5fq+0+c4ncs2O1czyDfqtC7lk5T+WdEendeGOWAGo6SuXk/2SfprjpNCkTkWV+2vef1615pVJVu0bK71wg5/32pLy2e4v91FUt669xegKM9a6SC3T38K+sjuimnkc57sqrXHC6ZaevZZndslPGh+13rJarvvycExyWzpXPe8e4/2ZAHu1Omn0+b83D0rIovFg4+dJvSY06sJMvPyy3fjd7T4/80jAHlT/1EIdDuqdGq52IzHDS3tzsVml/4X+1aZ9tCE7edZ9s/PWi7/69fTvMu7vtMAD7cId1BPnSvt2kvav6lmucrvXv9sjXzr9IfY8eCjEcWZbJC13ysq6rzK6Wmz5XLw0XqoP11oD8+QvEtQByi+UY26r69EzC+m7gxi863Z8mD/TLn3uLPnXhO89ewG65L+JC/LlNsuBs9f+HgzKwI6Lg7Ox3Wh9OmCv1vsrOAmmprzIXlsm/f8lpgdJ3Jz1jfK5rtLfYtdHb5Lp7+1WlqlgSdXrCB9vda8/bMqZXfGq1rDQzOLrUhfBb7XJPxAQ1OXn2P/QC3jkob+s75Gq/rmjxV+Iqb2yX+9ODXDI1tMoVunuZqvA//e0clZyGeqnSFbKDg9L7pPNWmJW3NkndZ092xu9dVSFz1IUy54Xs6UGnkqPS7vo/uTyzIuo9dttX+Y7dxrr0sdMBxTODzn7M+q83yD2X+6veuZ0qJboLrbq0v/drmx4qL+iuwrkNyj/+2l7mf8s2Q6pKT8uCXDcO2uU1u6rKy1o9FSblM2vkoa3pWYYLVX5e9op7/985oeWs6lW+SowOCO74sy2mq3Cow3S87r48MNlTTtM7Xu9M5Xjlcb5N6TxXch0vLfP8Kqg/pVN+PTqoUixQfulJwPT/H47LmL15Vn7tAjnXdkXOcOZC+fZqz5FtU+WDWXZEXtvpvJePfPa5YB+2S8N3dpsbJyXzbw6/AXnmPDlP5R3dSvxHu3KWUAVql79+wwlRKq94xHdOL2itM+M75YNhGXg8j0r+Az+WPXq8YmWtbLxgrhSND0jP9+xnKXOlxGb5yffd7sXqXKvKODPzKsenXC5MyaR8EIiOxppWyaNDKv1OTEidCiIbMiZwLJVKfVE0PZi2RHdVduWVhrlMSsfSVunTF/lPqGBNT5Jm3g+kvdkWVadQaR9+5mSv++S6vZwSqBfNVA4ea/SnvZt3P32Ku5OTqS77C9p0K2yUfrm3Tw9VKJfzvr7ETLSXfHGL7+Y+AESJYWCrCs5P1stDf7PbjHd7/ulG527gB0l5+v6tmVd73dKiLmC26uqxRFoe65Fd918tiRNUEPrXT8u3o1o0Zavc93RSdMOrGTvkrvuVh52JVPS6v9smI4fSM4bqMYRtvjGCjpEfNMlWM0FNqVTfbO9sPrFBOvfoO+S6wviwvPK8O5Zvt9xzTZX8R7cL41TY/Q+/gLfJfU9k7tfO5wfl8ZsWSsI39iXtso0/ll12gp/JD8qk7tnnnL9bqi7UegE7HvH+G9fI/Tqd/odeVl3Udj0sPwntn6osekCu+Zwz8U7/g8vkwV/Z93N5YYs8amaiVml35RbZNdBv92FAXtmpf5LAOXa6qhg8dvUJFZS4x0593v/dR6Vf34dQF+bL7t0tL9rjoMcMmp+HyWqPJE0rij6u/fKs+rtdjzdKle22muGEMpmvu4Oqx/07dsuaat0tVKXRnna5VKXvzt0POGOnVRCS7cbB5u92ybDeOVVhWt8zILv0vvf2yytd62RBRSFdTTONPKEq7hET5zyz6WGna6uuxDwwKM/36rTaLXt7tsjSC2c5gU6Yw3W8tvxc9h7J42W63RV6vKZ2vuUr2/EKPb8iFs1mpOUGO8GWp/zaM+y0oJeqSvseJx88cUuVFEd1K32/WKpuec7JM7sH5KE6Z7b6iRd2yC0vOIvkK+s+T1X3tdJsWp8CAbzXW0+ZVuKo4mw6Hrz/KdMy7junVR55qF6P/VV57qktsjnyWuXVJb2D6sio8ri6UgUe+54O6UnQLq+9pc82FUZc9pSzrj1bZckZ3vNHlePP5leOT7lcyKW0wuk+f3e7PP6jS5ygSAfYTwSz8Tuyea1udVdPdRAZMoGjbinuv9/pwZVbPmmYjy752u1Ojwdn7o3VckaRP+3/0qZ9yNBhSy0bVff5Xti0allE1oumY8Sk/S//tzoingC+49W39ZabmxuP/1zVFdT16f4l0WGtNvI/95nxzeXzq2XWh4OqzJrZLQVw/IplYDvw0Bbpe3+WJM5OyKyTVIVopF861q+S5oyuKroSd1vETzWUyumzE1Ku6qcTv1IVqj9st++H62+ula/e9aQMvasqdZ8od9Z94riM/UpVcL5cK827yqVh+5ZUoNvdvDri4p+eXCp9Z1O9t2y53KUqvRP6wvfJhPn+cv3TP30/lu6fTakOquj9b4r8qQqtr1GlW+cvZWRcbY/dr8QnJs1+PRpxC7jsTCfdtOJTnW01jzPtmyeUSrl+XX6Gk07/blJG9NT/zf0R+6FnZ9Rdo9TRHfqx3N7pvJsfZybqWzr7nX0odfJFQl3wx//JaaXWx+4rdz0lg5HHzizmdNf88jrp2DNijkOJPQ6lKh1Hcl5Xn5K139whQ7/Wx1Vtw2y1N0Pt8mhq+tyAkxKyQHcHVY+a+eVS8sG4DD3aJLd8T+Tk03XaqbT89aDsaFomHdlqz7ua5GuN7dI/Mq7ODJvu/7lUPlCVvmd27LALTYGuuN/qztwZwnRt3SBP79frLZZZ6lxKnF1ufuKj7yeqMmgXy/TRPl65zrepnedK1uM1nfMrKKT82neDND8yaMbJmvJArejVzu0yENWt9N0eaf7RsHzsP9t0U2mZfGKDLM9RBmfIlUenQR+njADepWe13rTuMHVBVl5oksVfVufWK2NifvpF55FPFsvEu+qcvutqWRz58zWZujsG1BHTxmToL8LnDth8072y+221r7bcLvt1j2ze6T2B8i3HlSmXCzmcOs/pPn/lQqk8Vf+01z7Zoa6xoUNl9DY0+YNInfddEyp4vD3L+OmgfNIwL7vcHlv6xtbN8metC03a95mfvPKnfXj6Zqn7PF/IWZCtXjRNKu0bbgsE8N+5Ue7b5YyfLilX+eE/jMtPW3psmkZ4a4P0varKGO2NfdJ5OLYVwHGpqOSU0w5HveAw0D9ArmdNVIVyS5WsmFblDNOxcvtLsr66KPI4rNwxYGaXTXZXyKWN06isAzh+tPWYWVXlQJecU9t0WFo7gePPaul8ab1cdPIEdR8AyCGek0cBAAAAAGAR2KJgHcvOlzkV0XeOO5ZWqc8rZDGttQAAAACOAAJbAAAAAECsxWiMLQAAAAAAmWixBQAAAADEGoEtAAAAACDWCGwBAAAAALFGYAsAAAAAiDUCWwAAAABArBHYAgAAAABijcAWAAAAABBrBLYAAAAAgFgjsAUAAAAAxBqBLQAAAAAg1ghsAQAAAACxRmALAAAAAIg1AlsAAAAAQKwR2AIAAAAAYo3AFgAAAAAQawS2AAAAAIBYI7AFAAAAAMQagS0AAAAAINYIbAEAAAAAsUZgCwAAAACINQJbAAAAAECsEdgCAAAAAGKNwBYAAAAAEGsEtgAAAACAWCOwBQAAAADEGoEtAAAAACDWCGwBAAAAALFGYAsAAAAAiDUCWwAAAABArBHYAgAAAABijcAWAAAAABBrBLYAAAAAgFgjsAUAAAAAxBqBLQAAAAAg1ghsAQAAAACxRmALAAAAAIi1opJTTjtkn6NAlYuWyLx51TL/vCqZV/62dHzhWuk4RHICAAAAwJFEYFuA8svXyc1fXiDnnV0h5Z8otu9a4/2y+fzlBLYAAAAAcITRFTkvC2T9Y/2y6941ctn8uZlB7YeTMnFwTEbtSwAAAADAkUOLbU7lsnLHU7J+fqnz8sNxGXl5QF4eGpCfvzIoB57okyHnEwAAAADAUUBgm8uNXfLKTfPEtNH+ul/uW7VMHvyV+QQAAAAAcAygK3JW5XJHjQ1qZVz6H1xOUAsAAAAAx5ij0mK7sedNqU8U2VdZ6AmZqpZJh3ra0jssdbPNm9LfUiUr9i6Ve+66QRZ8epaUnKDfF5l4d1D6HrpNbnlk0HkjROXyTfKNpZdI1X8ulWL7d5PjY5L82QPSfOuOQLfiRnn89dVSqZfT27KiR+Z+S61zjlrnic4S0X/rNVeuaWmUa36/SspLi1PrlQ/GZWx/v3R3tMp9T4/YN9NW7hhId4EOkX3d5XLZTeukrqZazv1Uenud8cDD0v/YFln7vT77pqtVdg7XS0I/9aS9l96mb6ht0kdvYk+bXLC03flA8W5vsrtCFjeap2mLWuXZP62XCjtEWf/9hcvaxTff1meWSsv6ZVJblUhvc4B/vQukZedWqTtbfen7Sem+uVaad9mPAAAAAHwkxLPFtkwFYD/aIJd9Jh3UaiWfnCuX3flj2dm2wL7jVS4r/6xfHrvzaqmenQ5qteLSWVJ55QZ57Pl2WfkpT8C9fK6c4S43XiZ1j9l1egKuyL91Ldogjw88KXd+uVoSn/AEtdqJpTLrM7Vy/b1PyeN3LrRv5i+17p2tclFg1ddse1LuuXGJVJ/t3145odikU81NWyPS6XBRAej6JamgNpQOfFUa182PDmozNKyWWh3UaiclpFa9BgAAAPDRclQC25d/+pQ884T72C3J9+0HMiYvp95Xj6f75DX7SVqxnPvlekn8u3FJ7ulxlusblLEP7Mfq88SVt0nL5+xLa0Hbw3LTollOt+IPRuTlH22RW25dJ3d9v0eS42YRKf7kQlmzcZXzQptTJiX2qZQnJHHipIzs7ZEdd+u/65K+X43JpP1Y/+1Nd9+swmePM1fLttalUuk2un4wJkN9dt/+oj+1XpFSqVy+RbY12Jchkt1nyZyKCudx1Sq565F9MmE/Kz67Wr76OX9kW/xbzv8TB/ql9xFnX2+5u0tefje1xSqd1skdZ9qXh9mCttvk8tnZotpyueOP0625k+/2y4671Dbr7VaPjpdTieXX2S49b9h9ej8pPeo1AAAAgI+WoxLYdt99SypgueXWPfJ//79uX9RxGVbv3ep+9s126befpBVLyUkj8sz/WCKLl97gLLfqCrn4S23S78Y+JyRkwfIl9oVy5ga56cqEDWqT0r12oXy5easJMB+9+wZZfNUOGfrQLCklF1yeDvZscOgYl/7Nl8iir9wg3/6+/rsmue6qalnbnUwHt+fVy51X2hdK3R0rpfoT9sWv+2Xz4ovkqlV239Yuk8VVq6T7gPvXpVK9dItU21dZ/apPHr2rR15NxXrFUnyqfWpNvtUvHTcvlAtqlsnau5x9feb7TfLlax6Wff9mFzqhQs69Sky34sNqUausX+Kk/+QH7v4GXSKJ1F2BMdlz3zL59iP2JoB6jP3GfpShT5oXz3UC/s/SDRkAAAD4KIplV+SxFx6QW4JjUt9ql9t7k+KGyLMqFqZaT8uvr3bGySpj/Q9nBj9vbZChf7DPTzhDEjX2ucfEnq3S0P62fZXW17hBfvqWfSGzJLHIDU1Xy6XzZtnnk/LyI8uk8++Dw5lVUPat3ZLakzPnymX2aXZzpe7Oy+RctyX44KD0PmmfW4/efqNsDhm3K29tkeF33e3Q3ZLt08PG6YKcMF2LR6Rvd8g2GSpytTcXDO9zAAAAAMgihoHtuAzv6bLP/Ub2j6a658ops8SNT2vK3QBThZ4LNsn+4eGMhzMxlVYqZWb2pHz1y8+Hx+xzkZNPmWufJaSs1LaFfjgsA9+TVNDt88I+eTvV8jpLTo/ojpyoe9OzvU9Ky/JzpUQFzGO/ekruuna1dPtmYLLOrJa6W1vl/h1Pys6du2XvK4PyytBwfhN3lVbLek/6uA89OVQhLbwLWptSXZDHdj0gfxTRo1hkh/zijXGbRrNk/toH5PpFbloCAAAAQLR4Th5VYGteoix6ZuGZ8Mw/h0RrDeVS5kaA749LOvQNapd3DtqnBSuWWZ+ulZU3rpYzfNFmuVy24QnZ27NdWr5eLzXz50ri7HIpOalYivOdlGkmLNoid1xZ4XQBP7hb7vtalxwKC8CtjuYt0pt0uioXn1krN/3Zk76AGgAAAADCxDOwjeKdcfiDSRm1T5Oj6cBz5IkvpCdhinikfqYmmW4BLimfJ9URbZWXnRISdP1sTN5zY7gTPibRYdlqOT0wPjaMb/KoiivkurufciafOqFYyhfdLH962xnOgkr5TfdKy9JznRmjP3Qm2er+/ga55dZVcpX6++5kdHCZMr5POtyxzp5H5CROGRbIPbctkTP+vX4+Jn13r5Zu834Wb+2QP6qdK7c8us8zGRgAAAAAZBfDwLZUyub45h5OqZtfkZrFeHJkSJ6xz1/ztKiWn73KP3NxNj8YlLfd1uHyufLVRfa5T7V8oSLd1Xn0LTsr71sjctCd7fmkSqm+MWKSps9Vyhlu1Pvh2/Jap32e1aD0fX+dXPczd7xqsVT+3jX2ucg1X5wnH7PPh/7cmWSr+e4d8swTfTKk9t6dMTm738iYnbjJ+9CTOOURFktx1W1ymZ2Ea2zXFrkuZ1TrWND6nGy6Zp7M0i3LHyTlmXXOjYjNe/INqAEAAAB81MSyxTZR0yorgz9Ts2iLXP+5WTZ4nJTXdm8xz7T+XcPprsCVS2TjjfmO3dwhe9yfklEB4YJvbJLgL78uaNsgv+9uy4eD0v+QfS5bpG/Incq3WM5bvl0aMn7ndoG0fLM2FWhPvtEvj9rn+TjD/jROUKkb1ap0+GA8MFnToiY578zwlueZVD7bDlS2XZDzcmaj/PES23VZbfvQo6vk1qcyJ+wCAAAAAK94dkXWExv9xW750f2tcsedrXLPwz2y94ElUu52RR7ZLVu/Z59rT2yQp4c8P6tz04/l+cfb5Z4718hlVy6Ra25V33H/dtn5/IA83uIN+kZk83d7ZMS22hbPrpeHBnpk2/1b5J67H5BtvQPyUJ39GSEViCWfuFe+nZohWeTB7z0lSbdL7SfUNu/8pTz+sP5b9dDrG3hY6tzfdv0gKU9/ty09Q3I2n1kgl339Adm4KN32PLQ3HRKPp34aRwXU1+2WbWY/18gdJp1qA+NxDyfdBfna3F2QrZUtV0ulG6yrY3hfy0gercMLpGXnoDMW95UeaQltVQcAAABwPIthYDsu/U/0y8SJ5XLel+pl6fJ6uWxBwhlPaj4elB3fvkH67EuHClDX3it977rBbbHM+sxCuWz5OhNk3vl19R1fqpbEJ0szu+nuWidrv9cvY26X5NKEVH9piQoUa6V6dnrk7NgL98rXmnbbV9YLt8l1LSowdoPbE2dJ5QL9t+qh1+f++Qcj0tuyOutvsPpmRX78Ybnn1loptxNBTR7oku9+O92yufnxfpVKlkqnarOf62SpSqcTD/ZI/wH72WGmuyB/7Sf5dFxWFj0g16RmXJ6Ul59oDRzDCA2rpfZsGw2flJBa9RoAAADAR0s8W2wHl8nyu56S5K/dQFX5YFySfe1yy1VXyLfDAsS32uW6i6+Wux7rN3836Z1Z+YNJmXg3qQLmrbL1wcxAbOh7y+Ti+g3y9CtjMuGd1OhD9XcH+qX7rivk4j9sl7dDYriRR2+QRV9aJw/2DsrYuGd7lcnxMRnq3Sq3fGmhrH10Cl1u9T73bpG1NU2y27vuzmVy1TeflKF3PeNS1bIje9rltmtukHeyzEw8Y1KzINvXWZXL+j9O/+6waXG/L6+2a7Wv7dLjdhd/Pyk96jUAAACAj5aiklNOOwJRzvS19Lq/NTsu/S1VsiKvSZYAAAAAAMe7eLbYAgAAAABgEdgCAAAAAGKNwBYAAAAAEGsEtgAAAACAWCOwBQAAAADEWmxmRQYAAAAAIAwttgAAAACAWCOwBQAAAADEGoEtAAAAACDWCGwBAAAAALFGYAsAAAAAiDUCWwAAAABArBHYAgAAAABi7aj8ju3v/KfT7TMAAAAAALL7p398xz4Ld1QCWwAAAAAAZgpdkQEAAAAAsUZgCwAAAACINQJbAAAAAECsEdgCAAAAAGKNwBYAAAAAEGsEtgAAAACAWCOwBQAAAADEGoEtAAAAACDWCGwBAAAAALFGYAsAAAAAiDUCWwAAAABArBHYAgAAAABijcAWAAAAABBrBLYAAAAAgFgjsAUAAAAAxBqBLQAAAAAg1ghsAQAAAACxRmALAAAAAIg1AlsAAAAAQKwR2AIAAAAAYo3AFgAAAAAQawS2AAAAAIBYI7AFAAAAAMTacRXYtvQOy862IvsKAAAAAPBRcJwEtq2yc3hY6mbblwAAAACAj4yYB7arpfOlN2X/cL0k7DsAAAAAgI+WmAe2CSkrLZJkd4XMqeiSpH0XAAAAAPDREfPAtkkuPatCFjfal9OyWrYNDMv+Yc+jt9V+5li5/SX/58M90mI/82nrCSw3INsanO7S/vfdh/qeIj02OGSZwDboccS+z81Df3/I2OKM7dBjkEVSSzZsl72Bz93vWrljIPB++rF3x2r1x862+r4vHw2PqHXqddjXmrudA9tlpUmHkGOhP3OWNkw66LQJ7oNnuczjlX7ofSgqSu+Dj90eZz8dG3vezDgWmtmO1Hant8u+VNL7svMnzraGpZmzrU5+CktPczwCaZD+7nQ+1Mu9rtbh3ddc485TaZni2Wb3b3PlpVR+yMw76XTclPMcyHc/9XF/MZiPNJsfMva59bnA+jL/Nq90AAAAwDHpuJo8aup0pbxRqqVfNp91lsypCLYAOxXc9dUHpdt85jy6krOlLlBBNhXzuoRpRT7HLrd5z5j6RAXh7t+29MuEeifZ7a6rVpoPHVJ/WytqBfY9u9zsehuEma93HOiSc1RA7y63eY/I/ObnMoLsleWzRMbVPpnlfuxv0dYBQHO1yJ629Hd1p5foWFqV+v6u5CHP91TIBUvb7VIzQAccKr0m1HbMqVomHSodpK1ezh1Sr+36zLEorZb1voBRObVW9q4V2ZpaTu2jXs4GRh3Lzk99R/cB9UZgHw7pdWVQeUFtz8zQ+Ublq9KkdKt8tfgP+uTVcZFElQqefHFSq/zB/JNVGnRJs3oVtlVhVu5Yo77bvjBWy+crx+QnqTys88a4zK57KTMAjOTZZvX3lzbqrVHv1eis6c3T45KoG5DOwA2VspqXZI1sTa1f56mS+Y02D98mi933Vd5WSWF7W+iHcw6EydzPwpiAtb5M+lvcdant7z8k1c1OcB4uLB0AAABwrCKwVVp66yWhgx43sDKaZHFNk/NUBVpOcHKJCTxct9dulv7xUqn+qm3laXhE1swvNZV13YrsflPH0lpZ0Zk7YNHBpK/1uXOZ9KiArKQse6DVMaID51lyeiB4SZSpaODgiHTY1z5zyqREhRav7lJB6tGqs7f1yOv1FSao9QXLjbWB4LlJulUgJaeWS4M3Iiwdkx59zOxLERU46ZsBKritK7Ql2XLyQlKSOuqaFm9gVCu3m3zVLit6kyKza6VzhWfr2qokUWSPRb4atjt57YD3doX6/ip/gNixa1AmpFTK5tg3stJj1tentjkdZNvvTb3WebVHkiHfW3KwJ+NY6iC4ZH69bJzKEQndzwKov6+dPa6C2vPNOejSNz30zY5ETbB1WItKBwAAAByrCGxlk8ybLTIx1BceACotVSqwPDAgt2dUb9vlF0MqAppdZVpLV35xrgoWk7JvWl2jdUDkdpe0Mz0HA7oAvX1F44PyC0/FPaf9oybgOXfR6qlFgNM1Z7vsrUvIvwaDWg/T0mbTYb0KbqS0zD9JmDom3hsNRueIjKr/ysqnsF+tz6n0VkHQ/V3mO6ZjY086qPUFRo0DJiA8d9Eq+4Y9fgd6fIFXdiqPrK2WkgNdsngge9DV8tVqtbb88mRLb6NcdPKB1DZnUEHii/Z4uBO2lZWn90NLDtxmn6WlbryscF7nL//9jLJykTon9bmxzb7h0TygguXSufL5Bn9WyZkOAAAAOOYQ2DaUS5n6b3QkqrVstZx+qn2ag2khHR/1d/ktgBPINZpuuG73YNOFNmh2vbz+Zjroq5MuOed8b8ul5mz3xGjE1nQukwsqVAA3vzH9XVPogpuoG/aP6cwYHxmmVKrrVMAy3i9blz1s30tzx2ia/bLpoFv9DisdtJnW463RAaZK99R+2kfoT0yp5fT7ye6wwKhJ9ulW+MoFNp1azY2VsIAwSkuPbU10exQEecaTOmmYR4CW2mZ/rwSHM352f/NcGWwJ66p/eOTcT52Pmv3HY3+zylf2U82ck4XImg4AAAA4VhHY2ha+aO3yzkH7NIfk6DSCL7e1sMUd/2nfDxMYYztnoEpeezMwGU7D5+Xc0vy6t5rxrfp7PGNs8+UdS+wdC5ud3k+77EuP+ANhT3fuOSqgyZoOWZgbFXn/rdMyWKoD7YjWY0OleyrN7SP0xoNazhmDGj6Gs/mH/TJuWwpNN2TdohoVuwW19cgfJPRM4FmC1aZL0tto8ka2saSW3ebZdW9mLJvqql9RpYL+KR4QGZN3QlpNI+WznyYf+Y+HO37dVfA5mSUdAAAAcOwisJUDouu+ZkKfCKZyPLsqZIygnqynVH2F0yXWdLl0A5YZ4bTm5aS7tx6y3Yot0y06R/dkN2AJazWdGqc1Unedzt1q2ySLVSA8XJKe7CmaTecg2wXcxwSK4zK6377OQ1mNnpxId0FeHtkdvVCdy6p8wa0v53T2yavvlajj1SrbavTEWV0h3dzDzJU1dbrbclf+M4E3dkn/e4ey5m+XHuP9nf73IgNyH5POmRJVm+yzNNOVv6CeDFPYzwipczKkG7SzXc454k39gtIBAAAAx4TjP7C13TKjK6jtsuJ+Z/Zh/8+0tMpO2/LYsXSr9I8npO5N/8zDG4NdJZsuke4Dunuk03rqftXKHT2+16He8Ix5tUzgaZ9nlTH5kJ1lN8u4YWdSHWdsceeURi+GsYF41IRVGZrk0k2/NJM9pYJb24LuDcSiZ8VVx8TbOqx/Skh3p7bjVfPdq5LSUtMFuWHbTKWDQwdIZoIiFSA96/u5mHb5q6FxKamsTbeq57NqtZ16DHd3bVS3ZZVndTp6p45uWCDnnlwkyYH8moRTkyp5AnJzY8c3FjXLzNHqPPKea7pbuena27tMOvNtfs+5nwVorLXnpH9maP3zSs546mAXfkdYOgAAAODYRYutZsebJlWlPD12tV4kFQzoWWHdn/dJj+ern7VHNgcmmGmucX5+R4/9c8eerq8czWgVytC5XC6wP43ifv+8gfzG2OqxsQe6nVlfnfGp9VLxd12RkzK5XW918NCjl5lGPKcr/ukxtioQP9BluhDnTe+3ncl4vfnppGZnZmN9o8F+r/75mNAxtrrb6Ghtarn9zReZny8qaP2a7YI81W7P2ej84ARI/t/B7VjWI0kdwIW0GGaju+Y6MyxH0On4plpXKk2qZaz7rIJaPtPbrI6t2mYnQHfGszrHukr2RYyxTXa3yWiNXbd6rJ8vpruwd5bwfOTczwKYc9L+vE9qu8xPd+mu1XahEMF0AAAAwLGrqOSU0w5DdR44vPREW3pipIKD2GPGJtk5fLX53eLpdrc9NugJpurV/uggmiIFAAAARxYttsBRsHJ7rTNp1HER1AIAAABHF4EtcMTZMdB7uvhJGQAAAGAGENgCR4z9Pdjhejntr9uyjIEGAAAAUAjG2AIAAAAAYo0WWwAAAABArBHYAgAAAABijcAWAAAAABBrBLYAAAAAgFgjsAUAAAAAxBqBLQAAAAAg1ghsAQAAAACxRmALAAAAAIg1AlsAAAAAQKwR2AIAAAAAYo3AFgAAAAAQawS2AAAAAIBYI7AFAAAAAMRa7APbldtfkv3Dw+lHb6v9BMBHSsN22avKgJ1tIkX2rZU7BlS50CMtRe47mFHTTXP793t3rLZvAIiNth553Z7/AHAsiHVgqytQ35g7JJsrKmSOfrT0y/jseoJb4KOos09eHRdJVKnz38RUrVI3v1Qm9nTJ7XLILIIZNq00Xy3b1laL7GmTC5e12/cAxEZjrZzTNSyJuh5psW8BwNFUVHLKabGt8a1sU5WpxibpsK813YK7vvqgdFfUSrN9D8BHRavsHK6XhH0lB7pkTk2TfYHDY4pp3tYj++vElNW3q5fcegDiaLVsG2iUc4fa5IKl3KACcHTFOrAN1fqc7K8vk/6WKlnRad8DABxTWnqHpU648QDEne49t75yUDZXLfM1NADAkfaRnzxqY8+bsn9gu6y0r9N0K4Q79st5vrOtyI4fS4/pDR8b5iyfXs7ppuMfg+b93PnutNXS+ZLaLu8yqW3Ud0c97/seA7KtQS3SsF1edJ8XQFc0w78zc6xc5j74uyIFvyvnGBwz1i6wLjt+x7vv0eniMNtl3lPH4E3Pcp4xf2Hp7z6Cx9tHtzDZZdzhg2Y/e1tTr13BfGXGgge21U0j9/vCv6tVntX7EfjbcCF5Q/9dcOPsfqQfBeQVfeMo8m/ttno/9w0L2GTPC//54EqNl88YShCyX8F0anjE5h/72nKPdcax9DLni/rOiDT2Hqe04DmuHhnbreXOs+l0cR/+cymdp/30+697l83nvPekUypF3PzgW0fIdgf3bzpprvZ53myR5IA3qHXPu2DecPJVRllrx+emti/i+DlsHgrmG83shy2jTJkTkoYmjfT79o/DyivFzcPp7/Jsn/dh09KUE6H5xkqt16ZJcJ893+fbr5B1p46H+U7/Z6lHvtsVJmrb7CPjGpCxHZ79DDu/Ug/v+REsc9LlvOHJo2HXpPSSEWV+xrkZsh+RIspj+6mWeS3ypoESkc98edZwtjNz25z9Sp87UfuZ5r12OWVM8Hvtfnn2pWPXoEyUzpXPe7cdAI6C4y6w3ViVEBkflF/k2Vp7+0BSxBbIXit31EpCktLj6VpTVvOSrJGtznhe/egalpL5jf4Kl7kQ1UvZnjY55yxnue4DCalTF9yN5oK7Wj5fOSbd6v1z7Pds3jMus+teMhc0o61ezn1tc3o9FV0yXFIt601Fo11WVKXfV1svE6l1zUAr9YGu1HY72yYyv/k5X0VbX/jWzxfpb0kv133AfmgvenWn9qfHPncnJVHnXBzzvujpSk9dQv5V7dsc9y5wSLokS9108Zora4arZN/ZZ9nl2qR/XB2DN5396FhalfoOs93j6W2N7kqlKg5qe2aKTsO62eMmDfU6D0X0m2jprZeKvBMtIWWlKljodvY7fUzSTOWubpbv2OljXN2c+/iYSk59hfp+z9/2j9pPnXOm6CdumqtHyy9lYnZ9ZkCitnNeRgVstfzXSrXxQeZ8apTqg958qY67+t7XX8oWyCjqb9fMD/nOKCHlgK4I6gAsSO+rOok9+9qf2ld/4KSPSVEqzfS57jvUahtfHL7alBfud7nlhc6reR/6qbLnmSlDzrfnmU3zi/53d3r/dBn0f9bnCB6VfNO8oVzKVOm1r9G+LpS+wdJcLaMqXZ1yVJ3josoCvX0ZkavWLr8YGheZXSUbA6m68SvVUqLKgO6pbotL7fv11SfbF4oef2jTTx93dWZK91n2/JhWK7VTbrjf7Z4PL253zzNVBteI/MRdl11/6hqjtsv7/sxtlxbcNvVQ5YBei5e3HEqnkVMOPWuCriZZ7Pn7CfVOutyxw4xMPq2X0/46fe50JWenynmvc9cOy7wB/zVXX5OcdUUIOTf1tpSpv8s8z8PMtuWxu23BQn6T1OlWTve71aP7QKlKA6eukPPrjwB9rexW252oSZ/3K7dfL9WlKs94W2c7R2RUSqVsjn0NAEfJcRXY6op3XWJC+u8voDtMU7cKetTF5Kve4EgHn+qKdGDAN0635GCPP/BpusRcIEvm16cqoS1fdSpJWz3BSnONDkATUrt9lXqlA1Pnwuxe5szdTu9FQVU8LvQFWE3ykz3viZxanr1SeRh0jIypf2fJ6amgu8dJ40BX7+YaW9lQwWd1qarceI+B2h8dZOmLY0Pu2oCvsu2bVCYkXbp1xSyYLurQvdpSK7enokWd5qpifkgdg4wgKz8be+olMZ6UZLCGNgW6UlcfkoYZdFqr4Dd5oJCVjsvofvs0SFXUak0w7V+vqbzkOj42YDmggubFngCgY9klqe/S37O40VN561wuPep7S8q8NwSc/clYV8MCOffkCZkI7Ko5n+yYzXTwryq9eqK40mqpywiQXapyv1b/rTpm9p3s1HK6UukrB5S2KnXcx03F2svZV/tC61wWsq+KDuCKoo+J3r9SW164UuWFzquHs3bbpoJDe555b664aX5OrTfIaZJLN6kAY6bS/OwyKbFPC7daOmtUOqtt1MfA2Wx1jt/f72xfRENjx9IeTzns0jcuimRiqC//a0YoZ99L885vMykpo+q8Sec9e43x3C0z+37oGAk8Gh7xlUPuVqbLoUfyus6lrrXLHrbviNxeG1bOqwvCUJsnr+S3LnNuqjzmu+arMm2rveYHb5CEy1Iey22yONB1t/mHKg/r6+0K+8YxQKepvoG8xqRpq/zB/JNVsB6cw8TJg2Xlh7nMAoAcjpPA1mklXG8q3udnDxYypO/kp1pIdCVbB2c/9N+9Tg7cZp+l+QM/272uNxhYBysefuYCqpYJtl54u06t1y0BpWWqWnZktVQlpMjTAh58HaQ/lwM9GccgqRMgn+2f84jsDalse/nSRbcO2e9NXU/t9vn/VB+DQ5HHICs3mL+/S9Ltk1OT0DdfTKUuVz5tNS3EE3u2Sne+K9VBmIzJO9vs64CVi+aqimD4sWt2ey5EVKjM3+o8mrNBxzkX3eNTp1s7AzceRgdstzXPuvQ5ULSnR161rx1h3VUtPRvve4ec2XhDpFoVagbsO7nt02ngLQf0vqgAKtnbE3Hcw/e1Ie+andManOxdXlB5MSPmbJcX6ypS51ma3Sad5sFzr/MX6RmQQxSc5uOjak+nwN4ECZbPTquRrlx7A1evJtmnbz5ULkjnR33OFPl75kzFyh1rnH2vzT+/zRhzvdLHLHB9st1Vnfzp9PwwgcdRtvKL2cuhQ6E9J4Lcc2eZdPouEgdCyvlxeXVX5vHV16RDkdck5/snRjNzaOqanyv4bLXlcdZyXtE3ct3j1KyC9WOu5VMF4N1JE8zv1D2I/s65oeTXLu8ctE8B4Cg6DgJbPbak0alUVFTIpd4Wozw5Labp7pHZAoCsTPc6VfGrcysT7kNvn7NIirqYuWOg9AQq55yVvgPqjmsxE6vYLkqb+9+zn+ZLd2kKbEc+Y6Z0F0/PmCWzbW4XRVWRP/1U9d/BkYjWDfu5+g7fetXDBKA5qW2us3fhQyqaoeliutIdRrq7mwow/1UFmJGBaCDN9KM+ERLc6NYklQ46WG3Yli2f6oBJtxDbdAiL7kOsLJ+VNVhI6H5xU2T+Nkcg4txwcGbHdI9PWHdo2a9bN3Xr6Cb7hq5E6spn4Nvt+VQwdW59ozqsVSGHxi7TZT3VUmoCBnvDKXAIvPuaHnJgP/Sao1smIyq3qfIiMJY1rLxQeWe9bxnnnMrMZfmc91nOsyOd5iF0+ekfHxrojm/SNGQ/vTMzRwgGTuZGnbdnTuOAadk8d5E3AMwxDEHtuz4Wet/TvUQKkFFeBsZZZnD2PZVGzXPl1Rbvtc+OT20+17zvnIu6JdN+nK+I7Zqu2dMoh1I811p/XmmUi06OTrlc0ueik5dGR9KtwSn7RzN6cITJVR6nbjyYmcFtN2k9pMF+nKaPd6CMaL4otMdDZt0j/JzIKHNyDTEwva4Skpitb95k3uAHgGNFvANbOwZGBwCb7bibKVQrUt0Ind9idLohF9Y1zVZcbYuBdwyi7+Edv6QuFKlxSANV8poKjMwEDZ4unzMxDiu1bs94x6y9gQNjbJ1tcys0ue7K2s9111H3730PdYyyVvz0NjvdnsxYOfuuMUPpEnYHPtoqp2tloLtbhmCaqUfmeCpF51Nz57vRMx4uU8N23fqj0qKQLvUqGHbzbWfEWWBazaco59+qyr3TEn1WoAUwnAkwbOuo0913UH4RbGm251NhnJbuIttNtTBO7w3doqdbXc0NLhv0+FK09Tm7r9nHR2sZgZNXqrxIj4X0Pbzdr00Z5/9c39TJXHX0eZ+W5Tw7kmke0Vqmy0/fGM1gUGYCi8B+eh5Z85++efFeiQ1c3dZpb0Xd6XIt6hxNV/yvlrLxqPxvg16771myQrRAeWnGWa7NNmzD2fd0Gm0VWasCPHsDQ4/LN9fEswrtvRQQtl3N0x/7fWAa5VCK51rrzyv2ke81IhB4ps9FPRwgovXf3FjJxZkzILoesVo6b1TXFpPGueou+ngHygg77jgos+7h7EeQv8z5sZnDw+lqHMGW7xN6rooe94akl72pDQBHWawDW9OFV1/AZ2CKedMVU08s0qrHiIZ3TUtUZRbopuutvTgeMt2gbIBcCFPZiu5W6V4kp8V2Iyy4e2OgBcN033IDkhAmAMryeW63yWJ9MXYr3VmjcDsWOsi2yPj+0nRfLJLRkdxBl6usJh1g+ru7TUNjrZlM6+PBScdcp9aaAF636hZUKTVjm22+jdhU04Uuopufk49Dgksr9bcFjf1yuhKHMvlK95Jwu/vqNLafpWQ5n+zxDHZTPnetbqGYeqtCanbPFZukTk+QFuzuGskJkvzCAicvp8txWLkyYyLPexXAqQptZnDrbpO+yWffcjV83nZ5nYE0fyO/Vq9QOqjJaFXNV7v8lb150aInCFTXj+7gIe5cLhf4ggMVLPfq7qeZUvs+rZuQfs6wgEKGnTg3ZLKVy06Xa/t8isx2eedbmKJc5VC2oS5pWfJphrC84lw7iiJ7H0UPB3BaYqPLSkOXxycfKLiLuzPk40i7TfYdyDZMx7l5o69JF9zfL+Oz6wOzJKeZ6+sMXSoBYCpiHNjaSmPG+LQA+/MkUQVxiq5oq6pEbY26aEW1sAQKdP3TDnpcXXpMbbus6NUBcmbLaEuv+zMErbIzozXSU0m3d6K9lV0zfmsa3asMWyktrMVSMRWi9BiljqVbVRA+OzVrq8vsn/rfnaClLriPbT05Z91NcyYH0hPBrH/JTu4RlS6h8X6wxUOlebNzE6SQmU9LStMB5oxeq1Vw+53+9zJn1NbUOqO6YkdzgkM330Zuq+lOpltd/F0KzaRrugUyWwCf+lvP7N3Kyu3POa9NK5quQKZbOMyEW/Z5JmdCtETNmnR33wx2QiB1Pvl/zsQez4wWQpV2OvCaapdQzfTeUPuxVgc9ERVsE5T5K8umlcw+d7kzq0ePS3bKi0MZLarp82maZ32O8/629HmWuomUTvPXe7w3FFrl2dsuMi1MM5Lm5nwOmx07H07e0eePv0xR50Fvrpthqoz6mXPzojZHD4fc0vseer2YIu/N0vzYIM2e/+bmou8mlG1Rt6+mymxXPmNGc2m6xFcOuduVLodyXNON9LU22PtlY0/mrMgl89f41tXSq7v7q3X9MOpmTMS52fCIufGYObbXyymPI3tqGLZ3k/dmhP3uI0/fgCyKrBs4Eyfaa5IqHx9U165Enf/67wzbyDZRFgAcGbEfY5s5Ps0+8hlP6uPMsPtxFViETlajJLvbZLQmvY711UWmS5ivoqdb5FRlUXdl8467rB3tktvdCpSuSNr3zUNV0se63dlm7YyvujJvP9c/MfSdgseS6oqDdx0XiWSZkClFV2i940VVhcg/IVe7NJx/lqqY6J8kSS9XJ+5FXP9Mg/3pDc/n+2tGTVCZdxVSXUAv0Olg0kpXgMLTJXSMrW7F7y2Tb7zpGS+lKuTpscJ5KjjAzF/HsvPtjNqNzvimVGU834qdS/+Oox2T6Ukb/TCTGen0ezMdjDbXpH9Ww11u/Xz981P+GUrDmL/tP+T/27ljTvCnj5dtiXY/q9p3tsonzt+GcQIMFRxkC8j19+oWfF++tD+n5Zu117KBV975LIRumdLlQGQ3Qt2iZ7uUu/uqf0okva963L9OV/2TWDkCPlVenNMS7PrqlBeRaZJV9Hkfyp5nJrh184lNc/PzPqltsj+rEtYyOaU0161EtsVtCvT54/6MWHqMZaOUDeTRu8LM1q2DUnvDbjqZJSPQn4KM8zZpfkolej+cY+zd72pV4m62LebOjL96Gbf8q5J9+hwqdD/Dtms6Q348vOWQux9uOdSQ2XUjnL3WHgqcO5eMdQcCSlWmtvRImWddzr7kWFfYuWnHLUfn91Y754d6Gkg/M+9C6nomckftZudn6Nxl1hbJVn0uOl90WPnrTVebCaHCyojUDP6eYTEdyzJvXnvnJZlu3gCA6SgqOeU0yiFL3zH+RuWgfCeja7O+WNWLmOCT5DqW6WO4Xh3DmeieHg86sK2VsU3+n/BJy/U5cJS06Z/10hPnqOBfvTySJauusJtJ6GawCzGOQXqCJhOMHqnyT9cVamVUra8hNMjL9Xkc6ckOnYn0so5vB4Aj4DiYFXmmtJoZa/+1oEmjAABTEpyF+khRwU6tGftMUAtMW2tden4HADjKCGwtdzxcT7bZb4FjTpNcela21ohcnwNHizOeV3f1zDZL+Ezb+BVnpvNCxtsD+dFDcZzyNrw1NtfnMdPWI6/XV8z4OHMAmKqPfGCrJ4DS40yc8T3TmHQGAFAYM543x0/0zBDnt4eHpX7Wno/QUAXgMNLjkNX5O+1x5gAwQxhjCwAAAACINboiAwAAAABijcAWAAAAABBrBLYAAAAAgFgjsAUAAAAAxBqBLQAAAAAg1ghsAQAAAACxRmALAAAAAIg1AlsAAAAAQKwR2AIAAAAAYo3AFgAAAAAQawS2AAAAAIBYI7AFAAAAAMQagS0AAAAAINYIbAEAAAAAsUZgCwAAAACINQJbAAAAAECsEdgCAAAAAGKNwBYAAAAAEGsEtgAAAACAWCOwBQAAAADEGoEtAAAAACDWCGwBAAAAALFGYAsAAAAAiDUCWwAAAABArBHYAgAAAABijcAWAAAAABBrBLYAAAAAgFgjsAUAAAAAxBqBLQAAAAAg1ghsAQAAAACxRmALAAAAAIg1AlsAAAAAQKwR2AIAAAAAYo3AFgAAAAAQawS2AAAAAIBYI7AFAAAAAMQagS1yq7lHdr4yKK+ox+Mt5VJk33YskT/9y1fNZ688vsG+BwAAAABHDoEtcuvdIyPvF0vxScVS+fut8vXPuqFtuVx29w2y4FMfM5+N/X2PfR8AAAAAjpyiklNOO2SfA5HKr90uT6yvlhL7evL9SZETVLB7on19oEvW1jRJn/MSAAAAAI6Y3yr+Pz5O/1HkND7wuOz8u5PkU2dXyO+UqIC2+AQ54bdUQDs+Jm/8xZ/ImmX3yl67LAAAAAAcSbTYAgAAAABijTG2AAAAAIBYOwZabMvlspuaZFVdtSROLZXiE+zbH0zKxMiA9Oxok9sfGZTojczy96MD0nX7ctn8vP7rVtk5XC8J/dl4v2yuWiYd+rnHyh0D8o35pWbW34k9bXLB0nbnA5+5ck1Lo1zz+1VSXlrsWd+4jO3vl+6OVrnv6RH7Zpr3u8PoLr3Jnz0gzbfukCH7nuPY2e5kd4UsbnTeT1nUKs/+ab1UFDsvo9cfrnL5N+WmxV+QqspZUnKS/RJl8tdJGfiL7XL7N3dI5la5Vsu2gUapLrUvM4xLf0uVrOi0L5WW3mGpm21fZEhKd0WtNNtXWvnl62T9ynqpnqO2z44nlg8n1fEakYGfbpfvNAePl6bS5E2VJjrR7DHbs/weabnuC1L5SbuxH6p0f223PHjnOnn0V85baZvUMb86fczPXy4dh7xnQLk6Lk/JenVcHO5250oPjwNdMqemyTwNpsnQIwvlqrvCU/2mrlfl+nkfs68Uz/eILJCNzz4g9XPU5++rbVp3iTT/JR1CAAAAcPgd3RbbM1fLQ7t75J4ba02FPxVsaScWS8nsaqm788fyV3+2WlXlQ6i//7OfZ/n78rny6bPs65mw6Jvy+MCTcueXVRD9CU9wqJ1YKrM+UyvX3/uUPH7nAvtm/opLZ0nllRvksZ2tUm3fmzGLNsj/eulwbPcCaVm/JBXUFqylR/7XnctkwQXlvqBWK/5EQqqv2SBP7Ig49kZCyvIJ4qZEBY/f/7nsvHeN1HzGE9RqetIsvX1fVsfr+XZZeaZ9P8Ksth557M4r0kGtdoJO9yVy5496pGWRRN7wCFN+7SZZkwpqZ17lBVHn2wb5/LmeoDaoYbXU6qBWOykhtStWOc8BAACAw+woBrYqKPrBzbKg3AY0H45Lck+PPPPEU+qxW4YOTjrvS7HMWnSzPNQSDPfq5aEfNcrCM9IB0cSBfuk1f68efftk5Nfud8wAFUR3bloqlW488cGYDPXZdf1FvyTH7ftSKpXL75VtDdHBim75nFNhH1etkrse2ScT9rPis6vlv3+usEAnK7Xd21qXytyT7etpbHfQgrbb5PLZU41qld9y/pt8d1D6frRV7rp1ndxy11bpfSO1UVIyf5XcWWdfZPNGl9yq//7Wdnk5/edZTErSTYfUo0f22U8XtD0sf/zfzlC5z+HNW32/GlN/7Sj+5EK56cFWuSgq0U6YK/VXJqR4PCn9f5H593JiQurWt0p1vomujue3V6dnp/YblF887d2ffTJmP9EtqH2p99Wjd8B+EKJyodys8mBQ+R/Ok8p/b1+E6WyXnv2/cZ6r9fVse9h5DgAAABxmRy2wLb9zndS5QdEHSem+oUoWL71BBSY6OFktV82vlc173AilWBKXr5Pr7Sut+t4bZMGp9sUHI9L7zYVyQc0yWWv+Xj1W1cui/1ItKzpnpitk3Z2rpPo/2ujj1/2y+UvVctUqu661y2Rx1SrpStpKvQoSq5duUcFKHtHKr/rk0bt65FfvudtZLMWz7NMZYLb7E/bFTG73olZZv0QFbOrp5AdTvIHwz4PSe9cV8tmLr5DrmrfIozrgemSLrF18s/SmesLOksSCiDbshnIps08nfp2UZ57UQdtB+X/se9lNyujzt9j85j62SLf+6MwNcpMKRp22RxUAd6+SCz1567qrqmXx5l96bkYskT++ISLNTiqVkneeklv/r0tkxdrwv5fZC2XFFflEtuWysmWNzYeTMvmh825av3R807s/w5KK8T8clT2p99Xj7i77gcfIiO32XS7n1QXTvFyuv3iuuekxopYL1ye3X3quc8Pms7V0QwYAAMARc5QCW6eS7Brp+ZY077IvUkakY+kOefl9+/KkhPzecvtclkhDdbqzZPKpJln7aPRIzOlbLZfNm2VbMifl5UeWScdb5oWHqtTftTs9HvTMuXKpfZrdXBV8Xi6fOdkGNgdVsPeEZBlTXAhnux0zud1OF+SE6Z47In27p5j2m9fJHz0yaF949cm+kXSz68mnpPOKT0VZquXyvXefm6lEk/Lrq6XS7a79Vo98u7Ev46tHfrBcdryc7lWQuPAa+zxoTPoeXCfP/L3/G0Z+cJv0HLAvdPB+cXSHa1f5ta2mC7IJa1/eLQPuuTFTPhiUIXsoy6tXyWXOU8fn1sl8Mw53RIZ+NYM9IQAAAIAZcJQC20vkdLe1VVX8k3399nnQFhl+1z6VUimrtE+lWsrdv/9wUPoao/4+Qmm1rB8elv2Bh56Mx4aXAZ6xnB8Oy8D37POgF16Wt1Px2Cw5fYV9GpCo8673SWlZPlcFaJMy9qun5K5rVzuthmGO8na7FrQ2pbogj+16QP4oHYNOwVxZ8PUNcs/DXbJzZ488PzAorww5+5TLNeVu0D4ub++fuRsbNanvVfs3vFuictd9w+l1lvxORPA9Pix71AHNjLlHJDnqCd4/WWufRThztWy81nZBVgHoo7e4naZn0rj8cJ/dp1PnypK6dLf06roqZ9ztyKD8+b+ZtwAAAIBjxlEKbGd7Jv0Zl7En7dMQuvKfERQsT3dBlffV39unh42ny2v29bXLOwft04IVy6xP18rKG7NNllSgw7Hdi7bIHVdWmC7IcnC33Pe1Ljnkm7E3f5U3tstfDj0pD926VC5bME8SZydklp6x2TtRU6RyqfwdNxONy//utU9nQMIzI9X4Pz9ln4XYP5ruTnxYne50QTZdyidl6NEbZXNGy/vM6P9uvyTNs1lSdeVqG9mme0iM7Hs0MtAHAAAAjpajFNgekHRjVbGUhkxU49JBRkZrZHJc3rNP5YSPSe62vYDxfdLhHW9oHx1Rsw79bCzP9a32tERH800eVXGFXHf3UzKsV31CsZQvulnuby4Pb4E9ytutuyDfc9sSOcNMIDQmfXdnaV3OZdEDcv9NC+UME8Tq1urdZnztLbfeICsWVXjGV0e5Wio+aZ/++m0ZUIHe1MLrTN6W1OLfzjJH9Zx0V+jp+s2/Zbk9s9rpgqxNDm2XP9r0tnl+WLz1gPTb3y8q+WytfF3nxLolUmnyR1L2qMAXAAAAONYcpcB2UCZSsUO5VP5BVPCwJh28qEBqZI99+kJSDqbG3lZK9U2FtnH+Rsa8M8Tax9hvIoKjt0b867vRPg/63KflDDd6/PBteW2bfZ7VoPR9f518bZcbrBRL5e8tjZia+Ohud3HVbXKZ/WmbsV1b5LopR7Uil11tu7YqY30b5OKrVpsZkfXMxP35tEbeVC2fPsl5OvkP++RR5+mMeO2f04FteWV95M8vXf+pdL4b+zs3cwaUlklCpVnm4ayX+RVuok/KO69FtQyXSd31ni7Ia9vk7ZmK4EONyLf/2o57Vnlm4R+ruPZLc8V0zh7ql++/dVhXDgAAAEzJUQps++XP3bF8SnntN81vefqVy8odq+U8G7y4kyo5tsjuofTEPef993tlfcbfz6TA+pZvD/nt0gWy8c7aVLA2+YbaxwLaED2/WjSDZna7y2cnnCe2C/J0lP12eocn3w+Mjz1zndR+Nrp92bQcXz5P7ZE2Ka/t3mKezZT+xwY8k2nVyh1tCzIC0/JrH5FVF7j7MCZDP40KTBNS27JaygNfsOBP1qRn9X5/SHZ/1z4PKk1IwiSF7oJ8w2HrguzT0mMnbSuWT198j9TMdcYcD+1tlxHiWgAAAByDjlJgq4KHm3dI/6/tC/1bng8MyM4dD8g9d29Rj3Z5fE+PZwKhcel/eIOv2+uDP3hKkh/YF5+YJysfGJTnH2+3f79F7t/xpOz6m37Z1hDa9FmwB+9/SobdGPET1bL+L/rl8Yeddd1z/3bZOfCw1CecH4jRP1/09Hfb8gsCPrNALvv6A7Lxv51h39ABxI4Z61ertzudTjOx3boL8rVT74Jsjf5bembd8t/fIo/fvU6uuXKp3HR3l+z6izXpGxpeOq3UMnc81pZqOZaD/dIVNSnWVL2wTh59wR3bXSyJuoflxd7tcr/NWw893i8711+U6oY8sedh+fZPohOtZH6jPPvzLrm/ZYPc0aL+fueAPHRV+niP9H1Pvp/jgOsuyGtbAjcADputqRsixecucQLw9/dJ310jObZygWx89lVnUrNXeqTlv83MuQcAAADkctQCWz1h0YqmdnnZnbTohFJJzK9VgcsS9Vgolafa1rAPx+TlH9wsK34QqNTvapLrWnrkbTc+OqFYZn1mof37JVIzf66Uf2IGm0FfaJKvbXpORtwg8cRZUrnAWddlX6q2rWqK/k3dllXm54uiggDfrMiPPyz33For5XbCpMkDXXJfzgCiAGq7fek0je3WdBfkr2UJ4vL1zCO70wH3CWqbrlwjd969Qa6/cp6U/2ZQ+sLGDV9zm9ytlll6gZ21WP/+cfM0xvlm0fGHN0vHi6P2lQpOZ1dLjc1bCz4zy7YWq/TY2y63LG2P7h483i/P7BmX4vJ5UvPlpbL0y+rvz063Rk8M7ZC71vZJ1vm3bBfkIxXWag929zuTjdmfPZoc+rnc5zyN1rBaaufYmyQnJaR2xSrnOQAAAHCYHcXAVtnVJl+ef4Xc9Vi/JH89KZMf2veVyffHJbmnS+6qr5Yvb+6z7/qNPHqD/LfF66SjLylj4+kWQG1yXP+M0I+l+2czFiKq9d0oi760Th7sHQxd31DvVrnlSwun9pu6H6j97d0ia2uaJHxvp85Np2lvd2oWZPt6OlTAvXhtu+w+MJ4+7h9OysQbT8ldf3iF7PmNfc/Ls+mT7+6THeudQPzw6JPvfPUiuequLunX2+gG4doHajsP9Ev3XVfIxV9py3m8Bpcuk7seH5YJz3dM/jopfZ3r5MolG3L8/eGdBTlSd48MpWbKnpTXnt9qn2fR2S49++2Bez8pPdsedp4DAAAAh1lRySmnzVzkB0BplWffrJcK3RN3vF82Vy2TDucDAAAAAIfB0W2xBQAAAABgmghsAQAAAACxRmALAAAAAIg1AlsAAAAAQKwR2AIAAAAAYo1ZkQEAAAAAsUaLLQAAAAAg1ghsAQAAAACxRmALAAAAAIg1AlsAAAAAQKwR2AIAAAAAYo3AFgAAAAAQawS2AAAAAIBYOyq/Y/s7/+l0+wwAAAAAgOz+6R/fsc/CHZXAFgAAAACAmUJXZAAAAABArBHYAgAAAABijcAWAAAAABBrBLYAAAAAgFgjsAUAAAAAxBqBLQAAAAAg1ghsAQAAAACxRmALAAAAAIg1AlsAAAAAQKwR2AIAAAAAYo3AFgAAAAAQawS2AAAAAIBYI7AFAAAAAMQagS0AAAAAINYIbAEAAAAAsUZgCwAAAACINQJbAAAAAECsEdgCAAAAAGKNwBYAAAAAEGsEtgAAAACAWCOwBQAAAADEGoEtAAAAACDWCGwBAAAAALFGYAsAAAAAiLXjKrBt6R2WnW1F9hUAAAAA4KPgOAlsW2Xn8LDUzbYvAQAAAAAfGTEPbFdL50tvyv7heknYdwAAAAAAHy0xD2wTUlZaJMnuCplT0SVJ+y4AAAAA4KMj5oFtk1x6VoUsbrQvp2W1bBsYlv3Dnkdvq/NRW496PSDbGgLjd1ufs+/b1w2PyF7va2vljgHzfXr8r/s87LF3x2q1tNOtOttYYT2WeP/AdllpX+vvfD3wXfqxs80u4DL7kbmMXlP+2+UsnzeTJiHf66atl9o+/34E0rxhu7zo/dyTBlFMWvnWlT7OqTTOki6OVnn2Tee9YDo5aaNtMunj/Sz96JGWInvsM7bZ3R61jH0nKh/p/ddpmc4bEXnF5MvMbcvID3a/0suJbOx5M0t66TSJ+C6bht7vyi0zzfx/n+WcDFi5/SX/cio9u3LmaStXvlMyv995+POJZdM/uFxK6DnhHG/zXZ7j7/vuYP4P2U5z/AJ5LFheaBnvme/OzHNufg/uZ7DM0empsjgAAMBRc1xNHjV1OkBolGrpl81nnSVzKmawBVhVGNfML7UvRDqWVtnvr5Cu5CGRcbVO+/qCpe12qSnwfI95dA1Los5bUVVBQo1It/rsHLvM5j3jZplOVTk+bNtljEt/i90u81BpO7veVxk2Fei6hBzodtNfb9+Y86GmA6fmahlLfd6mjla1rM8juE3TgZI6zqVJkw6XNqr9zJEuXmU1A7JGtqa2b053UkrmN9r9uE0Wu++39Ks9FtuTQD9qpfmQXlemlTvWqO2xL2aEClbrKuzz6dJd/den0kvfQArfC3X+qGNXEBNIXS2JA13p9Gz5pYzaj53P1bE66Pm84scm34QFaeuri3x5TOfhN/LI0ybAq5sle1q8+U5kfvObmcF78BxTxz8sn6wsn+VZtkuGvYmm96v5IpE9benvUedqThn5X69/LHw7Z4oKsL1ll8uk9/wx+YlbVqr8Luo8eHF7ITc1AAAAZhaBrdLSWy8JXRGtWiYdqQCkSRbXNNnnU6WCprXVUnIgeeS7Sb8xKhNSKmVz7GtplxVVKsBSz9w97Fjao7bLu8yRkpRRFfmVlNlgyAb/OhB0gk1Hx9JaWdGpX+vgUy2rgqBLm9zP1f7c3y8TpdVSl1fF3hukedMh/3QpOdjjD/Iba00QXDK/XjZmttvl5u63yh8zRefligmV33RkPS3OTYCLTj6QSq8ozvlTyDqd86JUB7Xec6xzuSx2A86vhnwut8liFUS5x9ykuAr46mbrGyfnq7xiFjJur70k6zYbKv1rzd9WSYPJZw59k6dbBcKJmhw3TfYHzzHH7DIVDB4ckQ772mdOmZTIuLy6q5CbRU7+n1DBcDr/Kyr/5bWdU6LOlxtDyi6TZvqmTa3c7paVnctkqzoPPq7Og1SvAwAAgCOMwFY2yTxVUZsY6guviE7Dyu3XO4FUzYB958hZ+cW5qgKdlH3Bbtq6xSjVhdCZdKusfJXz2ZHSsEDOVXX/5IAKWlTdeOWiiG11meVVAPJDZ/mUzhHTwldWnrulqKU3R5CWR7qY7Q3oGNGtyrPk9BXO6/y5Nz26ZLHKHt7dmjI3yLu/K93yOUU6vUzePStHgNj6XMQ6nW7ObldV83BbWlPH/zazZKZWc06Gft7ZJ6+qADpR1Woi25YqdaTGB+UX2+znBTD5Tv+tCoiD6X/7gArnSufK54PdwT1S+TYzW0SzwfC5iwpo3bTpNTqiguHAhh7Qd4hKy2Z88jzTk0CfL4Gyy0mzfukOtN6nzoMs6QUAAHA4Edg2lEuZ+s9UGqM0DpgWvHMXeQOdHF0+VZDxjeqTTctGzpajEIk6PdtzSFAQpbRa1nuWXz93SDb7gjg7nrF5rgymul0W3t06UTfsH4+otyvn4LpSqW72/I3ahldb0l1bE7qFa3zUbEtogGdauZzv8I+FzHM27Nn15qegkt1hQZozTnW66VKolh7behzZKyCQZmYbVSBsP82gAvO9dbpVb6s0RAR5+tj5vk+lX0XYoUull6dVLoy+GVBfYdbpbS11OOPfU91m9UP3iNAf2VbL0f1mwUz2nMxttZx+qvrv4Ih0huecrEy+K0TwHKscdM4xXxo52zQxGpGDOpfJhRU/ltH5jenjoNIwkye/m+Menl5OQDnDVNm1fn6pHAg5X0yaBdLBPFTem0KfBQAAgBlDYGtb/bJrMl0gD3kroyooOG0iqu+lM+awSLfGRbVC5pD0jqXT4/RKqmWNb2KdgOD4v/sPyRq1ne74u409trt1RZXt3js1uruwOxbVBIC6ktuzyX4aRXf39GxbxVaRtSoNe1vNGNukbnXKxrRyOd+RXnf6kXMMsDoOusvw7LrM8YipbujTSpcxeaeQFkMVOPxBQs/mne2mRzDN1EN3w7Wf+q1yWn/VfmxVaREVi6bH/LqPwPhPl00vHQg/G5yYKsV2J7brLIg5nlnkdU5q7fLOQft0CnLmu6CMc0zsOeZJI926evJEXl2Ndddi8z2hY2w9+d0c9/AhA2Y874yy46VVHvB1e7ZMmgXTIfXQ55BdEAAA4AgjsJUDZryn6dqYjWlp8VfkLugJr36fu1a3JCaluzaqq2WhmmTfgUPpMan56PxFustmlLaqaXZh1Nul/ju1vMAxfu3yiyG1cbOrzNhU0+pku32GhlEm0LHdN6fYLKTHTX6n/z0TrOWcbCciXcLS0ukK67Q252eurJnmTY+gsho9AZXuDmxbRGeATq+omwFaep3LC19n6nhGdYF3xmAnqkJumAS6sZtAy+ajQmXLdxvdLs7ZArVUt+j0dnq7N0dxbzLlfUPA2+U+sKFmPO+BgSn1CgmTKrt0T4KQmx45z1UAAICj5PgPbO1Pb0QHM3YSIj3bqm1BdLTKzoifFsmuVEp0xTtXN86C6DGHRdHdG8M0fD4dACjOWDxvhXQKM9lmcMZCRk6UE2m1fL7SqZDfrmvPehKcA7rrpX+G2ZU7euzPmTRJt5mkqVGebfVWp1fLtt78J87pWHa+Wo8KRGxwq7/JBEb5povKI958pGdyNl12e5dJZ77HulTljxm96SEqv5VGdAeentQkSiE3A9x1NmybSh5vksXdSfm4nVE6peER2WleO+fkuD0n0zbJTt0t194U0GvuWLpV+scTUvfmc76Jizb2+F+Hisx36rgmJnLfKMgYK9wqdfNL5V+zjdfXky8l1Llc0Jj+iPyvx1Tr7dRjz2dEuuzSgXLokW3sUumt06xHNnqHIKj9ejZbjxIAAIDDjBZbrXOZXKC71aqK9OupCW/qRUImC8qLp+I9Vf4xtvVS8Xdd2bvcBse92Z8UcVsFnaDOM25vuEr2TWEsqQ5y0uNc683PtZxTmyudnPWm98f+tFJNU6rbbHNN+mdW3OXWV46mJgUyP0ekgiHdguj9nrKBwlop9Xrc4PZ1FTSZ4C3PdEl2t8lojbtu/ZMnYrqLFnqsZ/amhzKV7sB5ur32rFR6OTd+bDBj1znl3VBB5TktvzQ/E5M6ns3nyqjbhdeORTU/7+N+Pny1lOnuu75xyXpWa/1zPrOlLrXcsNQX7curFTM035mfsvHPsmxknGPV5hzTXXad33t1zocLl0UdC9t9W+WungKPV2j+r5O8tlPffIl+L/DbtTl7Ejjp3X1A30zwbEtzmby87GG7DAAAwJFXVHLKaTNYwwaOR3qG33op+okTxALHhYZHZG/zufJqC2NjAQBA/NFiCwAAAACINQJbAPgo6lwuFzCTMQAAOE4Q2AIAAAAAYo0xtgAAAACAWKPFFgAAAAAQawS2AAAAAIBYI7AFAAAAAMQagS0AAAAAINYIbAEAAAAAscasyMARUvLFB+yz7CZ+dqP6l9MSAAAAyBcttgAAAACAWCOwBQAAAADEGoEtAAAAACDWCGwBAAAAALFGYAsAAAAAiDUCWwAAAABArMU+sF25/SXZPzycfvS22k+AY9PSWxbJ3oculjvsa5FPydZ7a2XvXefa1wCQ1tKrrm0D22WlfS3SKs++OSx7d6y2r7Mzfz/cIy32NQAAeWt4RPaqGCvfa87RFOvAduWOAfnG3CHZXFEhc/SjpV/GZ9cT3OKYtuNvx2VCfls+u8K+saJcLvztD+XFX7xq3wCAtOaBpBwqnSufb3Ber9xRK4mipPQsbXfeyKatR+pmJ6X7rEuk2b4FAEDeOpfLBSrGkvlrZJu6DhXZt49F8W6xHemR71Qtkw77UjqXyYP974nMruLONI5df/mifOGX/yb/50W1svch9bjot+Xvf7lLrv9L+zkAeDXWynf6D0l1s9Mzaf18kT0t+QSqq2VbTUIm9nTJ7XLIvgcAQIFUjNVzoFSqv9p6TEe2RSWnnHZ8Xe1an5P99WXS31IlKzrte8AxoOSLD9hn2U387Eb1L5VQANPUsF32Ns+VV9X1sEFdDylVAABT1tYj++vE6QF06Ni8ojB5lKK7NPvHLznM+4FxSc57djyveQyYZnnD9kEPdoV2/kYvl77Fod973fc9EeOfdMXEt5zTx73I/Srzuf+7NXfs8c429UJlRP+6PA+1rfq7zBisArtwO+O2PA9vGurM7/3M+0itxxknFv6Z12rZNhBYLuN4rZbOl970LxP8LnN8PMfLZdN4Z5tNw4g0TS/n3qxqlZ2+15lSY+PsATPja++7UJb6/sCOsbXjbqO+K5VPi5z1pvc1JO+EpL/JC1ZmPg7sh5vvQs4LzT32wfEWwTHvwc9T+Ux9/4ue5bxpFMV8d2B7MrcjmDbqodbn/WrvNvjOrdR3h+Sl1MPmi1Qe8R8v97xOp7WTx71p73C2M30uu3mpyHcMnDSyx9e8zsy/7rHMlg8zZJQJwfyeeW4Gj6Uj5NxUaZtZvqUfqX3OkUczjo/7CBxPR+4yws0rvofnu9x8EfzujT3ZyxUn/Z1j5P5p6j3PlzlpknmuusfPfUSdM/7tsscn4vx0rVw0V0rGB+UX3qDWTdeIvw07p0LzsD1+6TycIw096zP7nLF+9xh60sg9B/LeVkXf3NZ/43lknn9K6vxKP7zf4+5LtE2p8t8vfW6n5XOtC8nD6uFN30zR6/K/52xr+r30tvu+2pYL3r81x05va/B8DByT1DH1baxblnrOD/M9mWWnezx86ZnvsfRKfb8/0Xx1olwyykf9d/7vy1nmROynUw54tsPsd2a57vy9s17n79PXCL/gsdWcZX3bljUva/me5yHfHXF+pthj6/sb/QjdpszvT69bsemS+tyzbrcs9V1H3TyYZRtz1S0i91ttfzq7p49PdJmeq26h8oqnnpreh5B8E3W87Hb40kzLyNMR50iWdDAaByQpCZmXKzsdRcddYLuxKiFiL+Qzb5PUVQ6mx/SqR7dulm+2hbbug96dFJldm86U6iRcM79Ukt36jrmuWjiF4fr5Y/KTs85KfU9XcrbUhRVuc8qkRGWjbrNsl3qWB7XO66tPti+Uxlo5x65n855xVcFR32dfz6lpkinfdBnt96RFm/RLtax3KyVqne6+6XWKXafZDrVOTY8TK/pJOg3cMdLpQsCVkLJS9Q3dzt873+dhCrpGueh/d6e/S6XV8P9Zn7vAPQYsvSUh/+W37Yuc5sqaN6tkX2o/2+SX7+m8460wqzxWI+ljrB46zRJ1bv5aLZ+vHEsfD8/nncFg3jOuL61V5s22Tz10Abi++mB6vS2/FJnfmHk8T1VB/FqRB1P5X+XrUpV3XnqkoGOlK1x1s8elv6VCLrRjDXWeUhuQ2i+dpyZUnnpxe/g2bHWXq/ixsw0mv7RLw/mebVOLT+xps691T5CIE8ae64EUnBqdp5urpfRAl1pnbXSXU3UR1OsshLno1iXkQHf63Nu8Z8x+qpiKTL2c9tfuPquHSsdD6lj6KyK6QtWoznpvOeCkV8fSqtQx6D6g3hhPL3OBOlaHDmXPo+k0dI5v6njq7w87njI7axmh86YZZ6o+c75LlVeBYiSTU1bXz9rjK+d++R/rZqxc0XlYXwvCzhlfpSSgpbdeKvLIaAmVKBNDfenhOl4FnNuZ1LFXeWgmrdyxRqqjsnLe26oqjjVFeeQrxb22muXyyQ9Tl/tapyu86wPnkiqT7KdHhqoQq2Mamq0yyktbZuvzIEtGNcf05DwyaqiQY9n/nuc6VoBgnSiHleWz0mWWvobY9/2ylzmhZvIakYV7HXTTzb0O5ipXMoWc521VUpa6HuqHzQu+IC+MLss954DO38H6nqnL1UtCXffOOcsup7Z91H5srk3qujiausbbeqfNh/q6o683iZpHpMFujJMHD0i3d9hiDt66hXO9ik5TfS3y7ndZzUuyRraml+salpJUPShX3SKiV800840JTutmyR5P+m/eoy41zW+GBMZpznXTX8fSdflRldXLylfZ18ee4yqw1RW2usSE9N+ffwYuzG2yOHByNP9QF3qz5HS3oFUBnQl21243J1bLV6ulRJ2kixtthm2rVxdvfTGtlds9EeXttZvVhdX2XQ8aHy3gAqcqY2t1hTh52C+KzUu9adEuK6r0iZqQWm9BlYUuhBY3ek5j3X8/eUhKygIFaUO5lKlCcXS/fR3gpvE5tU7A7GiSSzf9UiZUgVuX5cQ96v7bhbJ6zgnyd+/+m30jB3UhfdU3tk4XlMF018fCHwx1LO1Ry5RK2Rz9Kv25m/oduwZVPnY/d6k85I6n8FIXtsS4ngDLQxW8taqSmez2bFvnctmqLvYl8+vTd+u10jHpUedRZyr/N8liXdEr4FjpArden+t2yEFqP0ye8lwczJgQycxTdhvS+Ved2/pCZbeh8AuIc96VzMR5p+/Yqot3Zp4OUhW/Gwtcpw2EdWXsUs+517G01gbsOuDUYzLb5MJlnomJVDpeqC7Q7k07bWOPqoDoyp8vHdWxtDeussuVR6M4F9XCyojVcvqp6r8DA748n5NbVp+/3FfONXxvOvnEQ58ziSJ1LDzp4DlnNkZ9u6rc6cpG8kCuirTd71AFnNshnGOvvmOmgkFbcUuqvJypkG3V5WF++coJXgq5tk5d7mudvnlbFH0T4gjQN0sij2lGeemU2eY8CKmyGPaYHgg9pvkIOZbL8ikjgqZYJzo4kv1Y5KiXZJrBa0QO7nUwJeo6mEPoea7quDrYS2uSffrm5anl0lBQiXggUJa76dPlb3BR2744dTNULeutT+vryP3+fNhc0yXDJdWyZrsOvFqlTudBb70kh2DdwpVvmpYc7PGnT9Ml5qZHRj0ob9PMN6ZupoNTt3HNofenW5VBiZrwm7QtqeA+GHC3yzsHC89LR9JxEtiqA29aQXUGPt+XGQ8L2zXDPHQFNFDQ6hNL38Gq63nOaSXwVPRadItyaAWrXX4xpM5yO/GVm/nN8qqA7cyzOubc9VbrrB2w7xxJTgFXUrmggNYM59i56VmvKnq6gMz/75279skBlcbBJOr8hbyqkjRRFXXlPdo+JQ9e9gn5+LvvyNX6wpAP3Rthm32eErxAWKpAS3fZURco9VZZefhNB3NzQBWb+wIxyb4BVZT6JmNzLi7J3p70XVTF6fLYL92Bv+8Y0S2Bnhs/Wlj+7xyRUfVG1PZ5JfQNLFPgRp3r/u4+dbpVJ5in7Db46G1Q/5ltKPDqkzrvatR5l9+pGmGTPNt8UebFPUTqTrRep5e3fLIP9674yi+q46SPs/cC7dWwQM4tHZdXd6kLc3DdTboLUqmcu0h/lz7vZqAiHpVHo9LfbJ8+32+zb+TDuRAHy9ZcTNkbFvhMI594pc6ZwLFInTPurOk+TqvaxJ6t0u09AbMYHfFWQtO857azG+HndgYdWJsbyF3Zl8ubW3FTFdaI06fgbS00Xx0R2a51+oaNCnQLunbOoFZdV1FlqjmmIUcga3kZ1nKTPqaXTrcq4juWV2e9joUpvE6kezSVyr+OTimMiDRz14h8+fObex3MO/jM9zw3gZOYa0G+9VSj4fO2LLeVhuDrIPO5yqM/DHyekQ+b5NLuYfm4CiR36ps1Og825bdd+dQtcqVp2LUptB6Up5Xbr59WvgkdjmLdrstV2xvGmytMOoQE966kqnAekSw8RcdBYGu7w+kDX+FvhSiICkTX28zqPnSg7GP6vqvP9MBptS7TFULftbQfpzXJ4u6kzJ6tLrzeu/HqpIi+gx7GWX4i3wJWFUR6m/U6va3BeZtd79v/VJ9/+3EYt9+/+zfmRM+T6R6hjt25Q+luLV3JkO02XcbG5J2wgsbcNS1EaWpm0dTD3JwI0ssFxkKELqcKgbph/9iFHN2zXHfcNUcuPOnf5Mk7X53hQsIZc7PfTBrjdtlxur34qPzibned2C6vwXzT1CX9457WYHNxyQyMdJdHcw69GUizGe6uqNeh78Dqin3DtsxUc/PUZ17bnMpTpivs4dT2XOq8y7xh5dB5xJcutrIdlKjT7+uLWMTF3WXP9dA70Z5hAO7DvYM8Wx8nG6yF5jlzruVBn3cqi0cFTbnlmUft+Zo6v+zyGeX82VnKCKW5Rne9miV16juc79LXDPuhlyoDX7djIU1ZFnpT0bmRNF36nCkKue5EnzO6UqXyhwqGt+rjOZUy3st7buviytw0sOd21FfrIENt37+q8y/yBrInDd2HCeIitPSstxW3LHm+Md9t3eSMZc2Zr2z652qVi7gmeuVzbue+1jldFLsPevODE8Qddqpe82J9hSlT9TGdbrbSWnptnUwf09AvDJzX+qGur/5T0o5LtsfSSbcCu2dPqU7kDH0aHXnYvo6Qo8zxyXmNyLdeovNbcIxmZj7x5je3S29B18Gc57knwLPHx+2yGy1Qp2o+1/xdqhXUpGeWFnDzeUg6hV1Lmy6R7uRsSbgNS/kc+jzrFlNO06lQ+eYb1SdPq25h6maF8KRDZBl/jIt3YKtOvhf1SW3GQkQf+LyY73ALT+fhHzPhdvtLj3mLXpdzV/1fx/XYHu/YR9tykK9srScZ7FgIfddbFRRTSgezb+n9d8cPb8wSpOnuDE7lwf0b+0Eu+m6guTN2VqBbS6boVm7F3q3Ln15nenvNI/TmhLNtuZcTVei4FSj9cFrrnW4wWfzhxXLFJ0X+7pfPy7ftW9Pl3gBJdRHNNmZD84y9njNQZQrFzIkpHjY9CdyWBNPiF3L3Xt/BM+eQZ9x4+pFjOzxyBkp6Hd1JM2YlY5xlKk95x4MUzmxD3ieQqnzVVaTOuyg6j/jTJLyynezWY/3SY6bDzzynfNHrzPdOtOtArohs/2jObqiGPu8KW7VP3nnUnq/p82uryFpVIQ5MOmLmVogqI3xURcfk0YgxlSpNfZWW0BYOZ2zddJm73iHXHeeh08W/Jw3bdYuPSo8Ch9pEt26lz229j+bOftY0tK1wapu3LstS6fekofsIvWGpqXP2D4LdsUM5PZpybavOVxUT+eQrt6dPjpb/wDWxK1lironeczPnuV3Atc5IlaNHYoytqteoY1qqj+kUy8yMANC0/up0yVZPCp7X6qGur95T0owj9xzLwk2xTqS7uKuUD/ZeCsq/zMnnGuGkhy8fRdY3gtfYQD5xW9/V9+UONsPkc57roSTu+p0yOfcNfeccSG+3/Tu3LH8jx7XHfB6STvbhO7d0GiQmZGI8IXX6+7Ntlkufd1F1i2mnqZbnTZAUJ98UZc03ucsfUzcrhE2Hj6fGBWcyNwXt82NRrANb3X1SF8j+MV5HlrnA2ucuZ6yKKhTO32ruMpsTyzKZLLRLnNP9xVtQOmNHe/IKCs5dq+/S5NHSU4Bm3U0hsktcGKeyMPXuiU73Rr9N6a7GoZwxd6a7cfBPc3VtOSxsd+ys4w9KZfVFvy3y7jtSn9GtOAfdbSR4POx+Zg0KzcXaEXrtMS0iOh032TfSzPhb012lVeqqizK7Aimmq03YtoUJy/96+4ryHK+kWyRzFLxpTp7MYLfBx6RRIWOmDsd597A0VOnx9qrcUMFt2E0l3zoLvMCmjlNUTwxzo8h2Nw4u0Oqkj7nRZs67QzPbzd+TR6M5Ac4h3/HTZYQKjrKd5w12DGcBLTemrC4ty9wmO7YuvxuO0bzHIqdTa832F3YXPfeN1NS5vWKT1M2X0HPbVVaTDqzT4+OnY66sUYFHroqbq5Bt9QnLV+a93MFLkOm6N8UuhX4h1zq38jxj6Zubc0x1d1PvOPIQeZeXzjHNHsRNgymD8jO1slkFdWaOgVy/+5xHmWMdjrpZ4SKugyEKP89VkNurzot8r/8pgeF33mtPmFyfpzgBoW5tvkCPv51dL8+2hl7tMs1A3SKsDuUd1pLvmZ3KN7WFDLvJlO2a751s17ddutHDN+lVprx7kh4FMQ5snUyV7M1RIKuLhdMSZV9PmX+clhE2I6l7d9YUCnZguzqx9Pp1pupYaoPdQKV1Y7A7lvpuMxlPXkFZqZToAC7nXe/CmJNR32UKDb7UBaDXO+hcd01xTsSefO78mpYhXUilWzbDZvpcub3WfGfkmEBdqNo0fr3HW8lWhdttzljFw3KBjeTky6wn/UknyMfF6YJcuFKpXuudPdju53h6rJ5plfNVmO2d65RW2Rmc1TXb2EUzSYI6VmvVsbCFYAYTGOsW/uf8FSAVUOzMKBgDd1Ftt6ciexMnL6rg/U7/e6mC15xKqTyl1me/29xkcp4G+G84mWEGpkKW340kh3ve5T8xRX703XB911Vt45uB9Ayc6/leJFN0Fy3TE8M/A/bKHT3iTP3vDKPIuGute8d4uivqbTSTKOmumt501HnL9zpc7jwaxbkBWGRvAGqmjCjKVkbYm4RZy5FMzqRD6hj4Zut2e+4Ukk8i6HPmvXQLYIo9Z3z3NErVcdc3SwtsVdPBedZxm/mc21aJ2oZUd1X73rTofVIpnHfFLY9t1fnqUM585QQv+iZy9uAlk6kIFtrykte1TuUrvU1hlczDyD2mYV0v/YLlpVNm6/LS97fuMZ2BIE7nXf+xtC2fefGXk3kzE8blvmmVT5njcLdjpq8RWZiWTXsdtKKvg5lyned6+FmwPu0EbirvFnSjPtiYc1vq2pO6pmup8vA26TaTMDWm6tMOWxe1f2DOrQnb2qzKDD0Z3+y64HU0i0DdwigkTW1936V/Qsf0YOgtpAEunW+mNKzQS+1P+DU/x2S7qUmvAsfD1nFzdtU/imI/xjZzvIF95FG5KpQzc7Eq4N11rC2Srd7uIm0qiFaFva9QsDOnpX9KxenC0X1AV1rT2+78pIQthFVw/LqeQEY99fefd04kndFefykQmMxEAKcrqal16TFm6gIVmL05TQX65ud93OUbpfpgupt2Tipd9E8j6Ttj7vrmDeh0cdelKsjqvfW6hbAlx3fq76qwP++T2h77cyVH4C6pf4ytOkbqWPhmlA0x5S7IuodCb5kn3VUh/ncq3T29FjqWnW8LMneZ82VfsHtccGxfszOFftQYdd16by54ka3xTr52frbK+71lsi9YGVfps3m0Vl5zx+GpdcuethwzAGfS++kWvOZ8sHnKvLbf7eQp+wdedhvS23mR2YaC84v6nkK7A+dHBZg6Tx9yyhtfRWKa57oz3tSZ6t/d//WVo+lKib5rrco18/M+qfSplrHus/zdvfTPm+l85Ss36kXyuBmXVx41nGXS55f9eSETDKXLiD2+mcIDTEuYqHK5y1ag8qWPQZv88tB8Xzlnxm9n5BPnOLnbqcfTmfc8Zbx+r8gu5xxPO65SXwvsMubhnjO+DdU3S3PcxA2R7m2Rebfepc/tj2c9t60pBNa5FNKCruXaVpOvTHdhNz0D+apVT6xm85A6hjlXHbgm1icOmGtiQfko57VOVzLXmJ/FKazym6bLvPR2OkGz/72I8br6mKoAIGc6ZJSXTpkdNsHdTAVxzqyt3mNZJS+fHVZGRCiwnDS/4WluggTKHDvW1dQ1e3+aX5njddiuERHsz056j3/kdTBMHud5cFxn3am252TWjKTT1VtfT5+HKfbao3/yLDVOv3mujNobDTpP6BZVf52rUcoGnNZlPQ7WaVhanmptNjco9XU0eDM/C2/dwnSx3vaHeaepHk40WuNum5NXdBfmgq/ZNt/MRM4JveabnxzNPtmuTm9fHUu/OcXeLkdSUckppx3BMw550YFtzah8J6qLda7PcUwq+eID9ll2Ez+7Uf2beVrqO2zrKwdls/75kZw1kWOTufDoiaoKDSBn0LGwDfio2qQqxleb30M8Mj1JdE8aZ8ITfbMtpsUGjiL9m571Rd3HfXmpA9v1p/VG7meuz/FRp2+01quy/SxVth+/Ba1bf9INEcfq9eQ4mBUZAABkajfj37L+Li4AALk02N/E1fMbHMOxO4HtsaixVs7J1hqb63MAwDHoNllccaRaay0zxkp3iy5gnBnwEaO7n2Zrjc31OXBc0/OQmCEIMzjPwmFCYAsAwHFMj7HKe/4DAAC8zJwagZ9VOkYxxhY4QqY7xhYAAABAOFpsAQAAAACxRostAAAAACDWaLEFAAAAAMQagS0AAAAAINYIbAEAAAAAsUZgCwAAAACINQJbAAAAAECsEdgCAAAAAGKNwBYAAAAAEGsEtgAAAACAWCOwBQAAAADEGoEtAAAAACDWCGxnwModA7J/uEdaiorsOwAAAACAI6Wo5JTTDtnn8dOwXV5srpZS+1Kb2NMmFyxtt68OE7XevWq9JfblEVknAAAAACBUrFtsVy4qk8GWs2RORYXz6E7Kx+c3yt4dq+0Sh4ENake7K+Qcu16CWgAAAAA4euLdYhtiY8+bUj9rj2yuWiYd9r2Z1NI7LHXSJXNqmuw7AAAAAICj6bgbY3tgdNw+Oxw2ybzZIskBgloAAAAAOFYcd4Ht7LJSkYMjU2itXS3bBoZl/7Dn0dtqP7MayqVMxmV0f6vs9C43PCDbGkTSU0c5n+9sK7ITS6WXDe8m3SrPvun9Pu9EVCHblTFR1WrpfOlN/zID22Wl/Szz792H3e6GR2SvfV4I3Xod9Z1BwXQw+6Ded/ci+F072+wHUXSX8OC6Wp9z/j7bvqc+c5jtMu+pYxZxDPQyr3u/w/Nwjqdz/DK2ua0ntYx7uMx+qnwVnGdM9zTwblt6u9LcNHLzUPh32bwU+NvscuX9PM4Nl3sMUg91jH7ipEPoI/U9wXPA+5nDpJH3c/Owedgu48pc1slvKRnbGVgm6pzQ4/p9f6OX8a7d2Q//eb7JlAf+95wywps3TD7Tx813QN20958vWtg5E0wHn4xt9z90eeUTdixzlBHZz/Nguel9uGkfskxGHtdyn9tR+TbsfMksb4LHx3mt08i/KWHHVsvcD++x1txyJfNvNfd8sGluj11YueikuUq/zEQyUuWEKTM925RPevmWCfk8kC/d4x+1T06aZOajsLyc5qSxfs9NM3e5dJrabQvLK3a/c54fAIDYO64CW33Rq0sckO5CuwmbC1+jVB/sknPOsuN1K7okObvef2E/u0xKpFSqm6tkn1rGHWPbfUC/NyCdvgquSFnNS7JGttrvU4+uYSkJjgE2666X0/66LbVc94GE1L35nFPRa1gg5/q2q036x9XnLz2S3q62ejn3tc2pv9fbPlxSLetNYNAuK6rS7yfVO3qyK+d1lazoFJlWX/QD3m2rkM17RKWFW0l16ErL+vki/S3eNLMf2gpJ3an9stl+psdKJ+oKrIioIPL1+gpn39xu6K11cu5QOl3nVPxYkqVuunjNlTXD6pie7Y7Xtmlsj0HH0ir/do+rbT3LWTZ6fLWqjNUl7PPp02lYN3vcpOGFWcZ0t/TWS0VBtTddaVR5Xzzpb/OJYQI859xwPrOfu+eGpxZpKp3qGCS73eV0fhgTeabW81r3qEhKt3pu0tSeqyt31ErRTzzj5Vv6ZVytI6OCrPJbahn1cPPbRl9tdrWcfqonn6v85MvjNq/4trP/PfthFvpGRXO1jHV7x/WPyfzmN0MDjpmwcvv1Uu2dHc/wnDM2H7rnzLPB4DSDk4dS268fKq0n7KcuE2jUl/mW3dx/SKV1eHCVNmiOrfs3pixTgYxTNjbJYvezll+adaaPQa00q9c6H6gvSJ1vZttUPnhxezBQmi36Hqb+e71sxvHLUqa//lIwoJth5oZWvZSp/Jdat9oPUWX/6z2ZN4RKKhdkbk9blSS8h7KzT15975AkqoJ/3yp180tVXu+S27OV5KfWyotrRba66epeI7zXN30d8ZWXKr1seWlOL3stSn9uy0n1HQ2BaDJyn+zTNOemrK/8V9dJt/z3KqsZMNfTT7tpqvK8vp46eaNdfjE0LodmV8nGwFWj5avVUqLK7O7GaV7rAADHvNgHtt6WmfVlPeqi51SQCmEufLrCrCrZh1JXPlUJ05UqdWGvsxfYleWz1L+6Yuisw120uUZf4FVw+9VN9h1HycEef+DTdImp2JfMr0/d5XYvuluXPWwW0ZprVKXjUEJqdaW+c5lc4NsuewEvLUtXEhprA8FOk/xkj6ronVp+eCtwITpGVCAjs+R0945863M2IPMH0c01Ng1V8Fldqj6/3zMmWu2PDiATNZkVplC6IqmCyH8Nzk6t0tsfeN4m3TqwCqaLqiC/qo7p7alE1jcDPMdgCjb21EtiPCnJGegZ36LyeFgaZlDpoJdLHsh/pc52qkqlb0y6yvs24Nz4lfS5keY5N9x6tgok1qgK9gEV9C1WFUhXx9Jas8256JsHixs9e6byfU/ykJSUZb85kMpvK5zXjoQKeopkdCT8BoBzHidln2c7c1PBZE3CBMuXNnm2U+dVtZ06r874uabS9Prqk9XxTN1mcKgAxD1nOt08mzpnPDe8pkqtt9bkt/N9x65j2fmp8zJqHR1Ll/nK36iyMYqTDzx5XOcDtc6MfJDqPWNfB2Qr08c9ZfrMS+cTXfak1q3LcX2DZXatv7VSHVsdPAa3p6VKlWfj3vO4XRp6VT4I/r0JFsfl1V0qr3uyZYbSMek5f7nvHL900y9T1zdTyqo85C8vm1LlZYNewl6L0pxrkXivRVqWfZrw7ZOi8/LJE/7yX5XbYfnMvZ6m0lRtr76eftxeTzuW9khSl9nbVzmfG87woYmhPs++AwCOV7EPbG+v9bSeDFTJa7r7VkaLXDZZxs3qu+TqOuy/Sz4m72RU1NN3i70tlcmB2+yzNH/gZ9fd66mgGkkZHY+q1Dt36IsODGQE8N7uXOtVhTijwnEE6MqLjA/KL2wabQy8DjKfH+jJCH6Seqx0Pts/Z7vsVUGtrkheuCw8kPGli0o793tTIbPdPn+9MNsxyEEHmAldWeuSUfvWVCVMLwT1XTaojdZqWogn9myVbt9KQ7qpe7p9zptdlKXS53ye/dxwApaVi+ZKiQ4WQxbNn+1OaLezXjdZ5bg5k8pv2+wbeXDOwYTMKyS4afi8nKuyjgmWAwGEGdc/4+eaSou11VKqgrPFA/Yty+yzPWd8pYbaDt8NrykyxzIiTZsHVHBVOlc+r8qvPG45KeFlY3b+PFunysjCbtLlKNNDWz5niMknNtAMahxQgVepnLvIe7NsQPbpIM67PebGQlJ6enU+9WhSfy/+v4/KCxnU9SKjRbdzxJRPZeXq+zwHM6q8zORcizK/O2yfHgndJ739RTnKf3fTwo6n/3rapNarymxva3GrDvzVen0BOwDgeHV8jbFtrJVzuoYz72pnY+7858e5iIbL9lkku27d7co/hrNRLjrZX21Mt0zXO131PHfO3XFHZrZmG+Tn1bXSR3en9m6DeuRzg0B37fOMjTTbkGr9c7qERo95tp/rbq3e9aqHqVDlpLa5zrZ4e+/kWyu3v5TeJjddTFfYw0h3gTStx1ujA9FAmumHCeKCdKuHSgcdrGYPanVA6LS86nTwJ0S7NJzvufljHrZXg85/arVRLZvu5/lI6H6h46OqCjk1TmW60dcVsisZUlUP5JVUfvPus9nu6NY8U060/FLK1Hnnfo+5EZTBc040X6QC9/DvnNK5n0NLb6NUlyaluzZ4cyz7OZPn4crKHMvpMF1xp7Zdbj74jGdohen+H2SGhYTdZFQKKNNdugz2brMuZ8OCuUTdm4Gy+mr/cma7CtP8Q93d2rlm6XQyNxZMsBh0mwkY04HbzE5m6I6P1eeU24U6rLxMB77OtcjfKu64PbhPX3T2ydvTafrlf6bbB5JyyN540Zwbp5k3gQEAx6fjbvIoeWNUJlSFtGyOfZ2LvWudF/Pdnm62Hk73xnzZCpldtztOzK3IpR6e4NXbMr2vSgfCttXN0wXU3120ULrroWfddmxbenKOCAf8Y2x1q3l6cpB2eeegWSqC/Vx3GXT/3vdQAViwxuSjt9mOAwuM90x147QVr6maGC0kVHNa2YJdyzME00w9QoM43UW4O/dvMzdsX5PZnTsfOv9lS95cn3uYFpapsl2o+1vOCnSFDBHMK6n8lj72qRbHrDcDHO4Yz/AbQZ5zwowJDS9XCjv382C67+tt83aPd+VxzjgLTtm0jqXWmB5TrR86OMorG6XyQfZx5Jo3YMn47kLKdCs91td9eMaZeyRVOesvq3/sX85cIwpkej/Yltii1fL5ylIbrGammgmC3RZz0w250C71mcyNrRWPmOuIW15mK3aba9L7r69FoRNXbfPv039N7ZNXfnk5d97x3OBo6pb+90psq3aWHicAgOPS8RfYmjvmWVprMhwQXY8L7ZqmJ8soVZUZ98LY+Yv0xdrHqYwEuwe73TS9nK6TTsvWIe+6swWPAbpyM66qNNFdKZ2KxLTYrqYFd8XV3e1UAOCmkemmmaUbYq7Pc9MT0tjg1juhVijnOGUI61qpj/3J0eM0w5TVpANMf9fyabC9EDImHXOdWmsqpLlbdcM43a2ju2Vm+Tx1bjgtiqbVUqejb6zrdDiV0pxS+c0dV+cc43/NOqZutXTe6IzB9I4HzsoGS8Fum5qZiX3GWoXmyho96ZjdtrBcZAJPe84UUGzkLduxTHX9VnktvxweXjbmT+cD+zQlV8CSo0xX5/VhC3ZMPgm7RihmQqiwbspOd23dEtvQWm8mcjMTHYUlcCoIbpVOFWDqSaPySleVX4KTKjnddLNdKyPKSw8TaOtrUUZSB/apaI/ZpyCdl/Ptph52PE1XZl9PkXb5K7velh21UjHhpCUA4KMhxoFtq+wMaaV70cyM66nk25+siJ7Js11W3O+0Tvp/KkB9f3Ow8quW7XVmYvTO2Ot0G1QBzQ8D3QbVd3rXq7vGmpaYXrdlzfk+vVxw1s+NPXZW5LaejFbT1HhGvV22wu0NolfuUAFWoCtzwWzgUliLpeKdzETpWPagM3Nm4GchWnqd153LetSeODNr+oJStd/eNM4uPSlMapZP29rorQyFzzCrlUr1Wu9EVc6xLx0vrFJUUpoOMGcorHWkJh1zgltf44hap9sVu3Dt0vC9dN5PU/tvXmf53J4bqYmUVADuzA7+km8YwModPb7XofY7vSzSwanOH3nO7pzKb7aF3E6slHodxkxYU2hw40w8po/Bs62eDdOtjHoM9A9nKFDSx1OdEdlmdjeT5Nhzxje5mtqW3LMi5yHqWJryy7lxE3XTwD2vXZFlY5hUPkjfPND5IHhrTc+cnCjK1lKZvUw345YPW7Bzmyy2s/X6ztUcQxTMMS2dK2v0xFNZb8q4AWNt9FjeUCq/9HhutNprZWp8buo64ikv9XXEW17aa5FXtrH13n2KutHkTvgUVf772Oupm6TmVxDM9dQ7KZb6zp8NmlbtWhWUM2kUAHy0xDiwbZJ9B1Ug86ZnYhz7Uxw5uzMG6dke3Z+CSI19dH6uIaMbq+5mp4IoPT7PHWtVN1v/fEmVNHT6w5lkd5uM1rjfp8fxFZludr5Klf2+Q6oi5C6nH5eMdafuxOtKkndM5vr5Y/KTsy6xn9ugTlfi7Of6JxG+U/BYUs94Qv1QaSnBmT3D+NJMPVTlLdntnehIzzDs/uyHJ83E7UaoKoL6ZyNEHUv3O/SjZrSwn2dQx/BC3V1UB7ema2qTXKZn/fSmS9GD4WNsdZff3jL5Riovqcq0qvyec36BXXunHGDmpmeLdYNb/8+V6EDDX7ErSOfyVN5Ppb0eO5fqpRD+uXtuePOG7qLo/iSMu+z6ytHcXYLtjLG6y7X7d/MGdJ4JOfq+7VAPm98aOlc5E0+lXkflHBXcqGWKCrxpoeljoH9iZHadp8ypE3Uu+mcP1vRxSm+nMw7T/54TsGUeT11uuOd2FN1LwZ4z3vJPnTM/maH4OvRYVh805VxYYOZKjs4y57n7N87PuOi/yeNMtvnAW945+cB+ro+d3o75qmhqyZFGWcr0c2pnKJGi2DLd/LyPu25Vno52Z+tirSc+KpWSPIJVJ2DUN7Ty625vqPJs82itTQdne4p81zdVDqtt9pWX6joSLC/9edi5FnVXhHWZ17z7FHWjqUkuPSu6/Pdyr6fuNcT9CblLvbOpa6rM6sm5XgDA8aio5JTT8qhxoDC6AqYn1tA/fULyHsv0Xf/1lYOBn7sBjgyd/76h8t93yH/IW2HXFz3Zk5kQSgX0MzVC4sjSv7V9tZmoKt+W9vjvMwBgKo6/MbYAABynTFfsiO6/UMxPC4kz1ICgFgA+UghsAeAo0d2bz6G1FnlzfjtWTxqV8bu0MDZ+xZmZvqChLACA4wKBLQAAx7RWedaM13XGCeec++AjyP193fpZexhaAgAfUYyxBQAAAADEGi22AAAAAIBYI7AFAAAAAMQagS0AAAAAINYIbAEAAAAAsUZgCwAAAACINQJbAAAAAECsEdgCAAAAAGKNwBYAAAAAEGsEtgAAAACAWCOwBQAAAADEGoEtAAAAACDWCGwBAAAAALFGYAsAAAAAiLXjK7Bt65HXh4dl747V9g0AwLQ0bJe9qlzd2VZk3xBZuWNAlbU90mJfA/BQ58yL5pyxr5WV21+S/ZwzAHBYHUeB7WrZVpOQdNULADBtnX3y6rhIomqTfaNV6uaXyr/u6ZJm+w4AD33OvHdInTOt9o1W+YP5J8sE5wwAHFZFJaecdsg+j7e2HtlflzBPJ/a0yQVL281zAMB0tcqzb9ZLhXvn8ECXnFPbJIeOj6sHcBhskp3DV4tTK1HUOTOnpsm+AAAcDsdJYLtatg00Sllvl0hdvZQR2AIAAADAR8Zx0RV55Y41Ui390t2oXkw5TNfB8bDsH/Y8et1uRA5njIx3mYjxMrr12LfcgGxraJWdvve8D/U9RbopJGSZwDa09AY+Nw/9/Z5O2GZ8j37Pvrb0uDi9vB4r5z4PezhjlJ1t0WOECurebcfj7R/YLivtW14be970rMOVe78NO4Y6vVxgv80dcu/n6fWYdMv4Tru8Z1uj0sU7vjCbzL938khRwyMqXZxjEjyGoWnspqP7iEjPzPzg5iXNPYbBb3f2W6eNu6ibPqk/NXQrnXrfrtsZV+lsb5o9byK2Twv/bpsXvH9n0kjvQ+ARlhfsGLbUMqnvCTmPUw/vOZH7fA/Nl/qRZV8dTvr60il1PNPHJzOvOPnZfOpd3iztyEgzxc0D3uOZkX+Cnxt5pIH5HifdvH8anheC0umQ+tuQ/XK/K70d/vPafG72OXg87LmlF2p9zvN+4GH3KZ88rplyPuQYO9vpP37OdqUFyzfzOipf6b/1b0wWq6XzJee7g/vlmtb16SfB9zyPVJrlLqczyyP98B9PV+aynuOpheRh33el8mbguzPKEb2M/cxw9sN/PqTfS3Pyhv89LUs+1CK2yz0+2c8ZAMB0xD+wVRexNfNF+u9fJh3q5dTiWn2hajTB8eazzpI5FRXq0SVJ+6lbAVxffVC6zWfOoys5W+oCF01d2dFdopPdFXKOXW7znjH1SZNc6v5tS79MqHeS3e66aqX50CH1t7WiVmDfs8vNrs+skOpugGell9u8R2R+83PhlRiXSadS+0KkY2lV6u+7kirVxtW+29cz0tpdOlc+H6gM63SeN9v/jpbPfrvpeiCVZm66Wqoy8aLu9qW7e6W+55cyaj8Os7GnPt1NzMuTFubRnZTZdS8FKkeZdEVtvc6LLelj333Afmidu3ZY5g1488a4JOqG5Vlv8Kkr6c3VMppKkzaVM6tlfUZle7WcfqrT9d79rpnU0uvpeqroPNOt8kqixhsEXC/VpUnprnLOv+kbN+nn7Ld+qPMweA7oirlKn7FUXmiTXx6ab9OnXVZUef5WLa7TxzlfqmRFp3rD5BV1vh/05JWKH5v1hAU03nM5ta6MYCULXdFW21ti8qZzrutzoa5y0JfPug+USrU6jzfqHe1cJhfodb2nypiQbXLpwKlutpNm+rxNdQ2eUyYlau+7TXnmLcusAtPAR/2tLks8WSM/usJv0+Gcs1Q6mDeddPhOqtxNp4O/PJsra4arZF9qW9U5MZ5Q5W+PSa+ipktSf7+5/z21vNp3d9ks3T+DeXw69Plfn5hIHYsoep2h5U4k5/p0UdEeT37pkuHUxW4Grk/PeNJPlSOHAumn89WUr0/9h0KuT+myyyyrylgfm1ckde6GLBNGlZ2vN1/kKTv1342p/BS4wTJVJmh2eoW529V9IJ0PI6n9ub76ZPsCAHC4xDywXS2dN+qL31anwjpFpqKhgxldOU/VDJtksVshaqt3Ku9nXeKb+OH22s2qcqUqYV+1lVwbPOpKw+LGdJDdsbTWbF+qHhJBBw7671JU5bZHBUYlZdmrQR0jOsCbJadHBl5OOpUcSGZWcA8LtR5dOdXp4r3Wt1VJYmLcBPVeOffbVqR1ul7amE5FJ131a1WxW1stpTpw8FZiO5fL4qgKpgqO6lQlNHkgj2Bw/6ja5lIpm2Nfh1EVKifAcIIndyuba5wKvPO6VGSoLZA3VLCo9jVR84gNJtSxqlH7rfYlnSYqWLtfVSJLq6UupHI2OvKwfTaDdPqo/Qmmz+21KkhS27HGtGI4E6Iku90g5XBIyqjahPQ5oI61TZ9Lm9xUbJeG76XTJ5eWr4bkFblNFuuKekQa///tnU1sVVe259edl41KjziDYtK+JtBADzCJZCJ1IlUk3ygZ1nVUJQWEKXpQUTMt2zFDHJtM80QGTWEUkNIq3/Sog2K38qTKkwJPCaalhjwItt+ETAyTmJq719of5+y9zz4f94MUB/4/6YDv1zlnr7322mvtvfY+KZfop8f83959xcGfhXX3O3a0VVDrXY/tSzAYMP/5DQ7ruR2fMm9IuY5pedtBDfe+JEgRHbY6l2FnO7e99y4D3da6tiVucM/XTMyslUP6RioH155x07mz4OqZDGBIwN6k1tU/FlVYPjk63gsS1Or2f6y4LzJ2optrJv3TsZOOvszRu61B9k+p/PMYbP/UpBGu0+2HbJ9jl1YDMzt05+ucz6No2/l3Djq9+5xtGRt7laaLgs8KnP896zDXxUVnEGl+0tHDKLZ/+qX6XwAAeHGpdWC7sKZHsaWT6Z2P6Ogo0ZMf/pY747QwLo70Op3L9LCX6Jsf2EEZHVej0ad/e1jNktx2O9Wu0aPvNs2pzfcmTvR0gecm99fYuUvf5DhUKlV7zxZ1JtfNO0+f2+vchbNczif3rQOSrbXVnFnU/HKffqtErtNv0hF2kjbXPzRvlLFI19viAF2kTtGUrqH0+sx50ZGCOtAYRy1gkyO33eERPYsjZdnDwcrnbsDBLD9UchvZxwGlFakq9w5t3zevB4aWz5OofDj46WzS0MQUXZfZrv9wA/CnQFK3LA9pfqbMSj5uc3TlU4hkDeToSrL7bzAg46GzDorsRQrLkYO5bADpwMFVkoYr380MoLC8ZcZVgluZJTaOeZODWskOuJkTSCmb9fghLUejgt5loGyJBFFiS2KnjrJIX0aDewc3lTgmh2jbCgc9uqFIx7tD6sIOak0XBogsh/ZY5Jq+7dOHTXnWdSX6Fq/LZ79/EttY1D9FMYOJR95y7F0ZynY2ogN9YmPJ2tie0W1/cy3MTinWw6TNtH65/hcAAF5U6hvYmtH2G5+4o9g9ML2PRvg/NXIcRadMVaEpQ9AFsyRl6DVHs3TkBzfNyXzoMjpF92RdmHUuaIUOHstJBWU5zUwM01bHH82viqTJeuvfZOaoyqj37IpKFUxGsVVAwk5VxK8tK7cr16hrZ0b3qwV44pjpGZCLJ3JmOiWIcMo8o1Ili+RndIQDib50UVBlkVTM9Pr64Hs2X0lQ331EP10xr3NotoO1ee5OnRkc+ciAkTOTlqBmQJrUHBVnrepgQlWCss8fpjsLzgyTIx9/XWZRmRxMe+8Gvw1MUeOL/ZXS9ZttqbMcGUmqpZyvTfSFTcNdkJnKGHNqMEHavQokZEaV27QESNNXYi3CpHlu51iiHmSgWPpK2RI7Qx9tixESOcSCWiuHqUaa+porh0FRQccDGyCHlD1j+Zy6KM7K0dcce2Ku6eGmz9uDZSz35fZP0ZM/+/3TVKOT7Z9UuQpstkrFX6Htidn0XO1YCxdbYOybGhCJn1PPGveJ3DMrgNgDWzZ9zHLgar4TYvpfaTPnYnoGAABgoNQ0sGUnQdIR3U5NHXq91BB3hnbDiNIQzMz05GNSDyugRoV7JUllDdbKxdjy1zAdWB+nf38QbpAh6FkJP22zO/z1hWbmaNU+z7IIPVvwq0NvqhRKNeupZhUCKpS7VK5qdL8aevRcBkRO0HKekCXtLykzH58Q/enBg4JNP6rrSC7W4VRl0fJIru8crozyZ2p80rXc9vhrrnM7fTWVT26QbgaVnsgax0q60A1h2S8SneW2bTewceST6mV6lAacpe09i98Gxmj96I/l61CZzY5ZB/ogu75Qp/Ou8PlMAFOEBH9qdnGJAwn+ruinmjWfpe+uRmaozax2bhpnDzIQWyKzjX6KfDW0HGS9Z7iZUSqHdM1t9+QG8DlU0vHQBvCh154GOHWRWWvqkNqdLgdin4f+6dbRTP+k+gMzi1ui/Urv1Xmia2zlntyBofiSkdP7XjJ/9YHUBd+s2IOkbO6RGbj5KOl/k4E5AAAAT5WaBraxEW459IYauiP01zrms6XSiNIHqWdRDoGXVms5Q28cGlbBhThlalTYbJo0GHQaWimz67S5a9K2HI6cdWZKBtKrztFtGaGvuL7w8td36YmSxyK1ZVMllT5a5Ub8crtyjfqNyvmT8uetcTLsbak1ZuWzKwGZh+1n2TI64jvuIdk6sjrUsLO9ynmKfS+Ag52WOJphSm4/BPKJo501+c6rn7AjOTr1lHf5TNMpVftL6rqLFEUPnTbYHI8E5GHacw7nJM2+UjsXO2U2gMoEdVl0ynuAszbVCyhmW8rR/5UJqFxk/ezQ1mqBjncvA8+WdM0lmh6X9Z56kx2RQ1HVReUQk7e5V5V6WrUNVNLxLjF1kTvQ4FwzPsNehK2r/PT4Z75/mgv7J31fZen8dm1xbmZNiAk8R/Zl+wE1W11hELAYqYvifsClvzYDAACgF2q+eVQFzNqtotk2tTEPO+jpYw2ERbpudj69/P7F6MzL+dUZ0uvNTMc19zbpHT392eLT11bLZ49/dNYUGSrvnimbMjXC9ZvDNCQOapdpg8UYR6Zqyq1sLrI5xB18ix2UnNH5KuVWqa9arsveY0BErvJap2pmnHwOCq67r4dZJuIolc3qhYgDvaehnf0cLp/4NOq4L6z5r4cmPvB0QdaJq5mcz2266hx9cfNn5ST7OnuGrqyls4QqeKk441GZCvJRO0nb73D9fnrjZ2q2y4O23kmdc+2UzlHn5o6Sz5eLqS6E8slHt3cJyP1HlXDAbgLIstmVauupLWYDKNboVDfMLJsZCFGlmI7sNMzvxTeeMnC7+Jjl7+kK63yL22iRrnYvA2tLelvOoJEgP5WD3kE2lUMSlMXkoOD2f9atX3OvrIsdLmrlNtCrDSiD60JmdGMDDe41K43reaT9071Vt64W6UvzejD9U1biHv30T4tB/7TYVjYvtt9Aghq4K15bnEXbTqkDz3baZUt9DwJyW17bZH3N7gSt7Lw3XW/bTO+ZCAAAALrn+Q9sq2DW88ijLtK1QVNEiXMoTpl9fIL9fIOmXpLHL/gd1/ykpKwROw/puryZQ9vlAcjySXrVjPrb8x9dr7aGST8GJ7KJjHFQ+yFcXyiP0zlod+OsgMxuDbFjlzs6X7HcVq4TTuq5kqtdX8qO5cGFb/kL6Xnuzx+hbc95YuemKP3QEq6vYwe6Ee60mUHriH70QyqzNunZEl33kja3SiOObrRlneqYv+nM5RPH1AyQv5ZrlkbW5d718yztWktvLTAHBFxj7OAWpU0XIfLJT5VMHmfiyPDyiVUdrJSl5oY6y8dUkx1BVQbX0RbH2/2eeQwXO+c2KJDdWUU+o97aYSufCnB7f80+2ib5/XvqER6xADJcZz7V3Ory8UZmAygV1OlHO81P2sfVmHOfJbooOxKbX6jHsrDeDXNAJGXPQ3TFPjLq/m35DQfC/L6vOzoAkTZ275appy5l0M9yhpS5VA5GRxM58Gt1D4EcEkQOayOOvptHewU7KpdTrOP9IHppBxpsqrrW6Yp2Jw/TP238J7eupqhx2w6GDaB/Klmn31f/NDVm+qczeuMpfr3ZydnJW2FS1FlTVmUAoovqlfZwcGXD1/+2PKUom8Gl2oPT39s2kvyO30uWNln7Jo+VYv2UfsYtY2t7JTsbPID+FwAAQHc0hn79cr/eCgCgDJVSeoTu5D2apTIS2M7Qy/9nf47TVPb5M8a0PK9SNoiS4L7PCZUXnaVVuje5TR/nBd1lnz+jSJD/Z9nArWb3DZ4PRP9kA0H1OEDzHgAAgGcTzNgCAAAAAAAAAKg1mLEF4JdgYDO2ALxYYMYWAAAAAFXAjC0AAAAAAAAAgFqDGVsAAAAAAAAAALUGM7YAAAAAAAAAAGoNAlsAAAAAAAAAALUGgS0AAAAAAAAAgFqDwBYAAAAAAAAAQK1BYAsAAAAAAAAAoNYgsAUAAAAAAAAAUGsQ2AIAAAAAAAAAqDUIbAEAAAAAAAAA1BoEtgAAAAAAAAAAag0CWwAAAAAAAAAAtQaBLQAAAAAAAACAWoPAFgAAAAAAAABArUFg+4xwfvUB3V+/SqfNawAAAAAAAAAA1WgM/frlXfN3DVmkLx9M0VjDvEzYpM5Yi+bNq2eSpVW6126SvfXNzn56Z7bGVQEAAAAAAAAA/yCei8C28cUYB4XmrTrAQe399kt0Y+EYnVpGMAsAAAAAAAAA/YBU5F+cM3RlsklPbl6k6SsIagEAAAAAAACgX+od2E7vo5HGDm3fN6/rwPSbdGR4h+58fYkIcS0AAAAAAAAA9A1mbJnT19bNxk2LdP3BBt3fsMcqLZjvJEgacfK5Pq4vmc8Yda6Cz+nACA3RI/qJrtJ33vfCa31E18PfCub63187wy/4fr1zuIc+38Ia/722SI3MOuQKZMq6TlemKVkXnKLv1f2uvj+Wx9Vb0U2xtJz4HoMbU9/3zhWXi/8dPuQazrlsuUPU++Z+FnI37NJydWV8fSksdfY+MnWVwZ7LkeH0Vfpe/T4tZ1YGWu4J05/xb/R7qjzOd9NzV9cNH1MuRy5p+/CR9++59cNl+S68V6tD/PsVR/Y+rrwjKBnJeYM6UHII5JnTPsPa8+Df3AvvW1Dn0u/b3+syu+eP3BeTtQOrtJJ5Lz2srn3J9ieja6ZM8p38dlxU3zHZ6msVfyfAyNv9TarzZ2j5Fren4HN9pDLKysWXb8LiV8H33GsZMnWdPVcVOyBU1nHFGbqy7l43cg3brqP6nrZbLXNzvpidNufJ0+H0vrn+w74rPFmJTLN1E8jcLVNEEd0yuR+LPXPbTKhnauNEkZ89vz0c2YX1laL1uFR3AQAAvBDUO7BVQeIwHZ93OsOIE1ONw/TBxjjdfmU/HRgb42OJbuw0qe05NZJGTNRRn+vjws0daratQ3WG3jj0qOBz7uT3vcT/8nnPEl3cn17r259Hg2vFYOel3TR/C3P0jr3Wwrf0hN/Z7Nhr97d5lnIk1DrgMTpornHhJilZf+k63uyMfLfxHjW3Vsx19b1sm4+ro527meOPPfmtbIpctPxc0nLKwXVFx2lm9SPzaTXm1zeJhg/TG8G5T19rcQ1t0uqJv5h3AkyZR24upffAZR5pd+lgiSM3f5yGWHYH99v6WqTfHfqBLiRlExkMsdyzunHk7AYdXXfrR3TN1k9vunF+dYrLPiDEkWZ9fSJyGj9BU7c2epN3ZdL26ctknZYjwWf3LFL70F36OGm3Y9TZEvvzlVc34qjPTJBqO+n3iH58f9x7TTs3knp+9f1L+scZPgrafDGyCZ29hj7+ypINUAHhFL38b67+3qDdidlS+3nHbXcrG0rftM5foulj9tor6pqq3tXrcbOXgJafq9tafqt0PgiUlJ1M5LNCG0F2iwqGqtinQcPB/Xcbs3T8sWPvpLyjU/GAL6LvIoejo+ZPxSX65ocdotFxOh+Erwt/YPvAcujMFiX45PRdD1y9PEPLkw2/b7rxc1d9V4KU6ZT5O+GjoEwa6UfEpn9h24zRs4yd3Nui76VPTK7PMh1mm25k6tpq916U7Wiw7chtPwAAAF4k6h3YzrYSp8Z2mjvWwTBfqcwwO20LLTq3a92HS3RqXBy0JrWSTlje84OCy++v8neGaeSAvIp8/vVdDirs5xzSjvCF+BcddvSXnWtNHwuvlWVhjYOOnU3aZB/oqcLOW2t0h51GcUhTh+oyO+bikDcnPzPy5UDi7HEalqB2ck69o1g+Se9062gsTdHxYZbL/rc9+Z1rXWAnjZ3fPxQ53Jfop8f839593dX7XCdybnHwuI621ulcjispzqaU2QtGuMwX2REcmphSzmSpay2zXyaoFdklqsAB6bvHTtBl80o49z9vsA69RL/xHGS+xx+W1KZp+fXTJRzwtJtPaHNrAArG57o3NaaCm0ROPcq7Omn7S2Xits9+maN3uN1eTiuL5j9nm+PWjZGhbTuW+cn8wYQi1EDDQNu8BP96sOG1E67+nqDXOFCl0VZmECmBdfyUu0nf3Nsq+Kms81Z+5pUg8lO6HQRKo2InHz/0vpswfZVajowHpv8VOP/7iL2TcnHf84QDsbZnprjeJHAPbdfSONfpjhpssmg9Zft/9Y/mHUEHi09++FtcDhYWVazv2tj1+67pY0HfdKK7vktjyxQMIi5my6Tqie9/s/N2em+sZ59yQG11JmH4Ea16uhHIdHYltR2Jomnb0WDb0UvbAgAA8PzxfKUii3Mms1PSGYZpa2Xs3KVvHCdJs0nb7FAOjQQzJjLTlqRM6RmukX3sQEQ8OzXizue57TqEO9v8TnitD+k2O2VDh96MO2WLX1Fbgs1PVnqYDe2O0789TENGHiEycr5rZyHUemGW0vqH+sM+WBhnKUaDm3Q2I9951jMgpQ5ghsi5zRroG5+z4xreisJcazszD0aXHz7if8MANMYifTn/ehLURnHTLOW7GQfTrNMO2GSF3R0eUTrZHTob4O83L1KnXwU7wO1DncsJahW9yLsH1Ix62D7dgKFP3JTOeQ50nLoRPW7ktJ2usUHyINv89Bv5a/zn1lWgc+St/MG1EB38NOloN/ZWBj0c+WV1u5jTb1W0TwNH2n4jbu+W/0Z3WLWb437Ad1tmGo2+a/TAwubaalCnc1n7L8Ei10jpbGRu37Vb0ne9133fxcTKtBwpk66nG9QJmnbUTsaC0+WH6ny67UZmtRPb0X//AwAA4Png+Vtjm3SG1Z2z6pj1h/OH6U6SAqfT7jycoKRNkrKWziJJ4JFH7mfiqKvZr4veLFBlRqfonrf+Kpva66JmS6qgUsErbN4lKWXJtfUxM+Fe4wz9Zq/5syKSApmeb0ryT+m10AGU2XvnmnK0g3S50DF3nWbXGWu27fpBHShtP4ykzd7f9mcscmi25Ryb1IkFtTYoazsp7yaV+OkhaeB8T+yEXsxLB86pw6w/PEzH2zp9MnauqvLOwuedD9ZwqoDfxawz5fZ5d8FPiy1klgO63TCgi6QA26BgyknplCwR83Gix3kzjd0g1zIDDT21+TxekTbbD8FaXhWYVsTKj3XbTU3N6raWY2zwSJCsl0gclk8FO6Ao03G1WaH5uypzMtPozJyqgYVssCiEQfl5M9g3mNlIs6ba9F26beSlqRsZBX1Xgsye/jzqlIkDzD1bmTKp7CSR6YOg3XJf1guJ7TAT4IntuKJfAwAAANg8qgLWwdJpgbLuy0+ByzDbMo4DH+vjqjO3m3+o0Wozoxb6SDpNOcSk+0qgUDZyn8eWrOG0zkz+mk3LVkHw7VExkHPXEtpDUhhTTCpxF/hrbMfo9vgG3QtT0GVG1PmOHGpto8vyCVqV9MVxSXHTqW2xmd907aIOlKIzgCrQL2ezI2vgYmuqndTuftZIm4yAqpy+9gEdl5mPT9z0+ICcOsx+m8+zwDISh/ZWJCW0oryzyHltHZgjCPh1qr5tn8Vhss8cvfvRt0SyxjRxwN+jkR1XR3Xd+OuhQ7rX4zh/1NeSNt/3uuOAHyu22VyctduqDmKBaYxUfkq38/RMUIHSk2hGgqCyEszflahiB4QyHZdB064uLPxFzTTamViVDZMXrKqAccgMsNjZ4ZyMjorYvkvaxtiTtO/KpaDvStGzp0mZJMCMlEkN1IpMnTXp6VFyHw7JIGJiO2RWPLUdy91pAwAAgOeY5y+wVelb8TTNQiIbU+hUJ+lYC84l66XMn1HU2iDryMtrSfeLpe7F11ONTNqg42T/s0CGc5JKVpAyq4PveDqfl2qpZsdlpqv/NE/lBLlpZgnpGszMzIFDPymIamMSufaiXudbnPqXk57O6A1vqsw+XqLpcVk7nG5OFpbaRTnD5u+UWMqoWXPWzYzh3hZ9MMEOopkZHIyLKMHPCm0McXAbWe/enbz7pKx9WpZP0quB8/3qmqRMFqOcevO3oIIuL02ze9I2XzDQ0CtJm2XdCZWuB9upyx+fgaxCKD8hmYnLCXwq26eBo9N7w3RjhekrYmnKaqZR3e8itY83dNp9lEv0ryZgXLjWUoGobBpVSl7ftadR3Hep+i4g7Lsclv/FKdME0c1IOnBST6eK7Zsi1mZU2/UzgpSdl++aPRmU7UBcCwAAwFDrwPb0tVXyHrVhUnZpazUdDTbr4bzHFkQZpuNnr9J0sqvlIl2XNLud1LlQM5meQxWmK/JvQkc+cXjsQqM56twMd2qVR2VMcSeedfKHhnXQMX1lcL23SnGTRw7lOX9zb5PerdTfEVMeB6HX+dogmwOYzib9Ktzlcvozul6wCVaMy+9f1IGet5OnzJLPKAcmmrbr0JdDawYbWpMcmJam/l2iU2viXE1lyiwB4uaavzlOPnqDF7muBLd6V1gz4+c6eazTfzq+x7zwGZr4wKufhbVZHRB1s+aM9UvNDA48uNSzoLLePRPcdiXv6qjBEc/J1+uGB0NaN+kav6uqzq38BaXHkR3OF9byMyRCbJsf3ECDy4eqzQ5xm/3uqqu/FZY7sC317Ci/llTdJzdXCgedNL5uK5kZ+flIoDRMfy+axZ9tUUdlnZTZp0Fziab/2WxQ6O0ebfqKrRV6dy4iBTXTOExHzraoWWKjLpuAsVU5k0GI912S5WP7LjXg4vVdi/Rl200JrtJ3OSyf9MsUSwe2Gz7Nf+Xveh3tH9gOujJl3ZBUfOnLvb5PLRvwbcfg2wgAAIC6UvMZ25dowl13x535I0kZLQmCokjK1NoI/TlZD8SBpqSwOTs1Xj5xzAR8Nl3xGN0O1/CF67T4nrY7Y5ndaw90Hjn3PkuvN27ShVj6qQk6+pq4CdbYTjW3qFOS6jo/KWl4+vEZdqOXmQl5HMQ4TbtpnrIz9UKQxjl/hLa7nTFXgZ59vI9zry/F5eKvsZU1cxz8HuvVodWDDb/igKJS6l9OmWXtmtRzdfTMpgpuWe8kaJiftI9+Muc9S/RpNN2THfiFVRpx6kfJIKyfUvTM4FMJBGQW1OxsOuM8y7RreVdE74qr26eWyXi2ffaB1I0efDHtVh5Pkqkb/dibzpYMWJg6lLqhLgL4pzLQ4CDppnzf6vE+9h6N7cx/7BDz47Z6pFXym6kR1sGiRxX5JPLj36r6CeSnn6Oq7a63Y3OEc6391ezToGGdfk3Wpnrrdqf0o7+438mz0zLTqAYsyoJVEzAODcvMecU09Jy+66Czu7pqG2owwN7zOP3fV7rvu1zcMsXTgR2b7q6znX+Zboc6w/d7YbvlXZuiMp2jL27+rK47SNsBAADg+aAx9OuXn6IXUA/EoZo5dJcuBI+iAC8OogN/Zh34uA46oB4VJIF09XVqzxq1kjcAvyDy7FfZuOlgKz9QtjwPfZc8k3iq0ak8IH366i2aOfwD+msAAAAZsHkUAFXSH8EAgbwBiDItzxDPSf8FzCL9bmJPF2naAAAAXiQQ2IIXntPXWqTWNw96B1oQBfIGIM7536f7OiCuzaJsR+MpbzgHAACgtiCwBS8sktIm67n02rwWnRv0DrTAA/IGII6kH0vbUHsKIMU2g15/rW3HF/vfrr5eHQAAwAsF1tgCAAAAAAAAAKg1mLEFAAAAAAAAAFBrENgCAAAAAAAAAKg1CGwBAAAAAAAAANQaBLYAAAAAAAAAAGoNAlsAAAAAAAAAALUGgS0AAAAAAAAAgFqDwBYAAAAAAAAAQK1BYAsAAAAAAAAAoNYgsAUAAAAAAAAAUGsQ2AIAAAAAAAAAqDUIbAEAAAAAAAAA1BoEtrks0vWNDfr+2hnzGgAAAHg2Ob/6gO6vX6XT5jUAAADwovGcBLY6CL2fHOt0Zdp81AULa+45xun22Bi9+v4l8yl4ppi+St9zPV1fapg3iE5fvcX1tkoL5jV43vkoGXxqWDVYWjXtP9ULAJ5LFr9y+qsNGr/9Ch0YP0GXzccAAADAi0b9A9vpzzjAmaKRm0t0gANRfYzTqWXzeUUkqG3vvUEX9u8352jRvPkMPIMs/43u7BA1xz8ybyzS7yb20JObK6i3F4YP6fYW0dChN2maJJA9Q1cmm0RbqzR9ZVd/BYDnkaVVujc1QjcWbJ83Ru/MQucBAAC82DSGfv1yjXvDRfrywRS9/G9L/c2syuzf/GG6szBO0xwQwz2oC7r+x+zk3NYKHZicMy/AiwEHs+uzdHzYvNy5QRcwawWea7TOH/mhz34PAAAAeM6od2Aro9Ztoi/6nF09fW2dZg7dhUMMAADg2SYZiD1Gp5YxDAsAAABYap2KvDDepMbWet+pp82RYaLHD4k4wL3nrFm6v7ZovmFQac96/a6/HlfWepJKhkyQoNv5XH/HfEOtA/Q/Sw5zTbURSHj9qmSubdcc6rXIch8SzLvXjW+SFa5d1utXvXIKwVovOUQeFiWrSFnU+85mJ3JP9zKbn8jshJzTubZaX6vrwb0XvcbWv3aGnN/K+98Fv1V14JRJH5Hfqplj9zt8r2bRZyhn9yjbmCz7W1f+Yd24R/4642xdWPnqsqtzR/QzlYte1xrKQd9rWm7B1od3PSV//9wxOShd8L7nn9vKPFPX5t4LZRupa4W5t0QOQlQW7n0YMt9j+XxR3s7jbcPIWNqCV2af0t+ad2Ko37r3ow5dpyExPVypotcldiFXh6PlTvXU+575VIiWieXTaER+mxxSZr5Wnl0oIc9Oq3vxypFz/257EZ3P1Jtj/+x3D4zQED2in0j6I/ec8XZfbEdcymWcrbP4uULbGW0zLhG74B5hWx1ImYwdCOtPnztm39zzOPXhUUGGEZvinS+xT875le8RyMGzV+a6EV1Mz6f/1noe3Ls5f3o/cVvgETsXl03Z7aTMZ2j5VtCPBvJQslXvsW713I/a/iAol9MfWPFauxlWX7j5muq/gnu1Nub7a/+jmrwrIGUr7OvYjmb9OfOZR9aefn/tf8VtrDr0dRLdcT+L1ZH7uTmq9YVWRw1Gb/3vuHqky5E9t/U90iOUcdbuOu+Z14JX10pn4zJ1z2f1JiTjJ8Z0Avyi1DiwPUO/2Uv0ZHsz0+iqGhSNPg+NTtEHdJH+836zZmnhBj3h92JKeuTsBh1dH6ODZm3ThZs71Gxv0JdJQ2RDMUn0RbJeV39ntH1LN57Zlvc+0SZ17Hf7TKVVsmg3aavjXvuR+VQzMnlLldV+fmBlg4YmZlOHVFDGR69dPmhk0tlqUpuN4fmgRzi97yWdAirnYrlJiQbF6at/StNMi+D7/dPxPebFAJH0ZisnPi7cJDo+78jAyEnS4e13lJwefKUcrcvvjzvv8xtWTnzkpxHqjmZm4hF1+HtWz7T812lZdQBz9I55/8DCt/SE39nsmNeVMxjE6Zhh+bL+8e/emZU0fK278lqfy+q3NvwN+lBdt7M17MshQPTwz1wf6p5cnVZOub7ewbG/8l8hadnd9qNlatpPLtwhsu4PjlQWbltP2rFBOUB83VT+ps3970g757/VuQra+fnVKeq1FF39NtTtG7uqTt3gSDrzmQlSazlTPST6kfXafa302tSX1mvWrclGgR6liNzsuQ6MLdENOk4zq3btvGWUZPzRyvjCjZ/N+xpxLtqjjnzlPIkhukSnxu35V2hjl/uNZE8G2Y/hF5j1XJpSqcPWlsp9bA7Hyulz+toHGfun7C3Xcvss0UV1LjmW6NufR5V9Tuuvih1xaSYylu9qnXWo1Cfoa069dDOxc9K/jLYfVOiXdzw9U0emP9GBki2T/Z5bJr9Uvt6sbDp1vXyCXuN7o9FW2p45wPtgYpi/r/fpUPYwT4ZRe+TLULUNF3H6ja2w58rIuScu0Tc/8HlGxzMB/sIfjtMwt88O2/coEjjNv07bRkbq6DxiWxAEJGWYsv1d2pbNfhO9//cL6XnF5oveZ/yqw/SBbNj5irX50n5Fxv30oxwIDbA/0DZG6+hr7/83+uYu26Be5O1g7evNBbevMx8yKpiaGvE+13Y68HNN22yyTU9sDLedbbpO77o+LX91M/EN2U/Y3aXdxbayTfb8iW3iOvK6d8fGq6OzmekLBc8fDPt4GUCZP84Fdmwhn6cULt93G+/5e+mw3zPCfnfhIHYVZtdpc3eYjrwVnIev2Rplea2doGWWUxbH1iVyYTv8T+1MIA1+WWoc2OoORAIyN0gTh0eCzOrBre74xMkTA5noL3d6r0qDczs9BX+ZjYAOAjRidMUYNSc/M8osjpQ2GpbL76+qxjNywLzxNOCGqDvlMXrX2Ujk8vstz3kberzqdwZzb6vOdWhiKjHSYpyH2DhddGQyP8kGj+XeuvpH/YbL44eDT+Pm8kiwurlVZvjYwJzlzoS/V8FE9sXlhzJI8BL95pR+ncjpxF/0G4zIaWOX5dSrweWORgebOkC1NTc/KZ09B5R/KHaGqyFGeZZe37OVXEdjdNe8EpTust67uqvvJXU8PNjBmWE9lMEVaScZdrZVPaUa6cCOkC37Oaf9yPW+/XmIy54/Grqwxh37DuvAIPxERSoLeyeZdmx1lNucW1bd5syLbmAns918wjrfQyFY7j3/lkl029o7uRflyFknXzM/6cskziWaPlauR1ku0U+P+b+9+3zHYHofjXCIs33fvPYwg5Mme6f4vv5BzLb8/oXmqMM2dzcsp4sNsgL7pzKMWJKdYycdmyvyNvbZ2p1u7UihjCv2Car9ss584twb9y8dDiibkwNw9uT8GZsVlCkTieWXSd2bDNKd1fe28HsuI/sCSVsukGG+Pcq/nh6U2KTbFYKebtHty9R/IoNFOsrO+ZMf/pbTP8sAlA5GPVvN+qp9mqs0nTN46WGCWhkweu2E41vweV5zfQ36UOl9pn2zSt9ZcG2+2N7++lE1yDeg/kACzCm2ra4tvHyiF3k7iL029nXa8c+UfRU5qMBKPj/mfX75xLGkbrQMtf8jeisDpokI2Yd9x7M5OXAb8AcHtG2SOtKbMuZwf5sD5aw9txmQ0fK/IgPbO3Tna75e2X05qMEC46MnLJ+ki4Hf2htz9MXNn5PzWE6/dVgNwue2VeursB1OA1+2w/98g54MH6d2VxNsYJDUf1dk09FaLp/4lDs4t9FXQ2Z+M8yus2ENR3JMowzY3GYnZXiEzZyDl96jNzka2debka5CaUM0bK5/aP5K8Z3aj5RxlpEq3zhtEheThkbcUp6h/3poOC6/vrDBKjsZ6+atHPSsBhuYVskXB4Ckv9POXfrmirzSnVh2RE/ktBvIqTrn5RrRFHs9Kr9rRon7YWFNNlxime1/O3IdhjtVV3elJEp3k95DHA8zS7R+NdV7ST81MxLu4IpFya9gEER9Hg1QLtG/OjMSGWwQ9skKbZu3BgbLQqUsRtpx1TZXjUX6sj3GTuZF6nRdCD1b3dtvNUrvRLdNQB6+7olSPQrpwjFMMMFwZPbkWcNNW5PBn0bYZyRwwPHfTZAVM2tmcMgn3SVcBWkDtSPV+gR9zeyu5FvyJVPWfupHzh9ffpSW6bx7hcVxvuYj+qlAh1VwLo7omgwMcdDsZFMU2eKoPVoqvp7uZ5t09Kk4vXPBLvGMup9NWnUGXj2m36Qjexq0/TD7ufg0ts4KOcB+jglq/cGbFDXz6Oh9RheMnfF/2kc/agb5BtEfNK+tmwBU1rSbNxXhrvxMIO9YCq+dBVdtJVpujepbjK8Rfj6/zq1/+DC9wf5aY/oNOsIi3VzvL9svr47y6Knv+1EHw8qndpppMaZPiPiYmcHYHrn8L3f5vtx2eYbeEL/WPGUjVj+6/iKD9MsPlc49TV8fFFP7wDbrAJmUnMqd6JbqmONow9o9Zq3D/BG6kzyOQafAdYWkQhtDo4+8tRUaNVJWNBtWFTVyz+dru9eWw9l9NkFmzqVjzAb7HpmybHBnYT6LkARerWwQ7rH0lTLCmx1/hm9gBPfdphWdZiXXcuTkr4GRmdDKVjvAzD49TbhMIvu4zMw6FrU5jU2Xk1mZGM7opHSErAttSf0yMx7Z2kiXD8TpsewSeE6NcSd0sdosqTwq6uddao67sy1m1Nu80th2fJjuJqlgfjuWNteIBhndIjPoHDQ/8Wf/q6F/2wwyB0oJdHuq0XGeg2rqoudMDLPuvIIe+e1nSnK/g1keRo305wcM51r76cLNl6jN59DnitmqMiS9PmjLYTpejAq2zTq4SsZKFjoFNc9iif1T2RSRlHUVcOSQftZDW7Jrd2MyrtQnmGuyPO55ayXZUR7IMpHuy6TTIsva5xy909mk5qgMyLkDff1dL1q3sgxp4YZKobR6poKIAZEEPDajyATm57y7ET03Ayzzx/lVfIZZBw1l8Lna6Ux+iOi9lFP1m47eP1VkMM0M8uX2BxEdnWpGGrrp26RviT1Crkzebgq1PXTfWG5fdWZGBVS7LchKKMHuhSF1ZNODo3Uk6ckPnIG5Q3fp48zAuC5Xbh+/fJJe5X5ge2I2lb/4DBGabXstPSAaG3zRs8YDYPkb8/hI4xOowYLIJJZj65WN5/pbzrT0opgC/BLUOLCNzR46VA7w9Gh//Dw6aKuMuaZOiZT1COEIX5dIaoljEO26xrxZiSKHpxrGqTEjTjLr5l4/OVxnS0YoGxVG7YKyyOGuJfFQKTpy/bJgVc9w5QdSAyC87/VxNmpmowNHTna9lHcUrKPMx8w+PU24TNJxiZOargvX6PQtWR/jp5/GYfl/+LqaVdId4SZ1ZB2PGP9YQJDXWST0UnYzs5/jWMUxaZteQMIOOjsHbieZtOOCdZjS5gahdzrrQKdwxtfz5JP+Nm8tUA6hbt86anRbPuxPD0V2EqRX0aOw/dweZ6c/3Owjd+YsRLIQZBBCUlPNW5WRWRnnXowuf3e1ZOQ9lCMfnm1jR9suETlYxSYk9i+eTaECjpzZlNQZ7r7+rFMenaGo1CeYa7I80rXE7uGn83ZPt2Uy2USls/862+HJjthEd2lF99dTszwVsw3sWseBBnqzKyol+8hbkhpuMopkJs8Tuui5GahjHd/h4DS2PECnTZch59Iz3jPhukKj92q/j576Qk132WB/1AOU0h8UDfJFdNRbf20R+9/ZVEveonagkrxjlOtWZX+un+Bu+rNkKY2XxhxDZOGusf2E6E8c6Pprfcv6+JRkn4OcNbbpWmA9IDqyL7IETgX1g+ASnVrjq5gMjNO/NbPlof/u2Hpl46Pp2mZ5I/iHUePANi+dSncu3cw0qFE3cx5PRVXQFjbSyCJzc81G0TXVuczfPaLusyDtQjs8Jj3FvBejOZ5do+mnVegRJ39GKwYHFWp9jk7XGAyH6YPCWb+UI2dlJI8d2T46za6RjQaUDoiR1YMrSk591q2LStvL6LVg9KySg1+MjCSLQ1VpUxeVXhUis5kmeHHlf+UkvWoCgnurvv6cV+vXVgsHe1RnHmuLXHZxUsPgZmQyDQirtneN3gTLdlLq+OSu+ayAoB27ba5n9raUA2hnBUp9Ihfnt+UDESXMWd3W9i1fD3skqkdZxM7tejIVh7FRnGqXbPozwMwNmdlnEfS6pKAY05bNq5TU/r07l1MOZYOadDRjnnW6sA2s3LbkE7MjJtU4V8bV+gR7TS8deICogaSSMiWzk2Y97mrJgJcdwLo4fpFuyNIKZ2OjIlucsUdmPW7x9UxmSFH99oX2i3516E1auNZS5ZJNjHKvJAMW/GEsaFCDJK48cxFb6gS3hSkOup4yxPyWJE266oCl2x90OchXhMyyc/D1q3CDTUWX8nbI7+s0Sd9yKvu59tdMGrMadIr5pb2SU0chkcyn3IDQIWlvlbOL8iexdIZEfjp3V1i7urRIbQn2M8sufFT9xTJDzV4FVYJ78HSodSry5fezHZHeRZcN2+emg5Y1fxslm0mpUbemWiuYbJRg0lkaEUd8aOIDNathlVmnzco1ddqsVnhtkDR6RDhmvLpBGbOi9UJqwweZ1fV3vDx9bVXPMFo46HDlIakoaoYgach29GpKGXK3n1pYc7aiNxuF3Pm629TJAoaHSe2aWxqs8vfY9ubNajw1lHNuy5zKKRzNPb8a2VSpInqdOOuj2eHUir9yenZF1KZnsqlLO20fei2cG1TEdpbUQa2azfQ2sDGYjdd2jf4ouD21OCIsWwek2rQpu7vjcl5q5hDrS16aWL8k7Thp65F2LG1uc0i1OXeZgG5z5kUZovPS0bND3LUv5vy2b9R6xLRDztfD/KwRiwpASvUojti5huMcnRaHsSQrRA2asN0YzFpngzjWbGP63j/AzHa6A2Cx3Y4Vrv3L1QW9uYu/I6nsFqwH+mxg1Y0dOX2VZVwov2p9gt3AqH3LbqRo4H64dACtAkmfb8pk8cqk5KYHXUsHAZO1+dL3cRllaYXTPxbJ0LdHehOm0qwC1Wdy+6g0q9cbl7++S0+47bU4OCmfPdYb50jQ5tWP3dhI/KhK9zlH78iApgS3tu4TvU8H0vOfcsB+y1l3oyq2tZImbQLFqtj+oO9BvhC28x/fkA2GdHDr6n938k7J7+tMe0r8uVu+P6f8NauzwocqlT5zb9znXg/uNYMZ2PCC0zzbFGIGHtI+fZF+N7GnWAbTn6mdhuU72RTePLTt8fwJwQ5mlgSg1dFr1JuTLQ5My/sS19alemv3RigewAdPl5qvsZWUwgt0Y2+aUjhz/DF1TPpbdbjhjI9R57GzhsBuSd6yjdbCBmVhlUactVj6MRPpznZ6l2QxSHaNwDjdlhHNbi0tN2RbrvQ6xelc85OS2kQ0kVxb1kJsm82ONJudJdqeTM87c7yhUvDCXRElTYnYWLprUVrbK2oE1z5WSHVIzrX0mh02DrIWq8r6tAgy61IpWO151FvuOVhLF9x3QlAHemMkZxdDI6ddlpP7vbcfdfoIuI0+qkdYOHq2V1I7zY6JA0LWJqodFk25l0/KjotaProsx7Tumu/TojyjTjvQnfGCUXGWy0HzGKn7//7/fPma8tzfeI/PIwNF/J1kpN8pu7OeR5U9s56H6TUgrEDajm0dxNuxXt8pj4FKy6baXGUb5Dop3dLHb0PdnhpTup3azhw9JO28F4lcD5pIwG/PH+iRg+iE2xaVnVMDJjKAwrJUj8MoGMCS4KTZYIc2f6OPagR2wfQB3i6vPWGcfpa3taWyk79kTMTu1dq/MvkeXNl25MuBVkMesePazip2xMhY9QEldrekT9DIY8iW6NvdCZoxn6uj9airACUf6fPFZuky2fO7ZdpV+wRIoMtfD3RcraOU4EtS7uU50+Ha/OWTtKrsoR6oahTJMLFHIkOzr0Kmz+aP7fWm9cCY2Kwqs3rpGkM+5l9XKZee/WT9tO/dc/us5RO0ym1vSA06l+uu7LIrtto7d1uWuldZjuIgA5qsHztJebXe7zgy+aDxaTz1mmVyYW2E/pzYfO5juH8/eKxL2zaoQb4IIie5d+mv7t1yZqa7lHdKTl/H9tW2J+XP3dj1/bmYjxtrm/OHaVvup7ACP6R3P/pWLx8y57e2KYPUq3Ofon8Nto/iN+o9BKZo7D+CnYs9TNDHvYAafKusWIz4EwvfqvKl19d72Hh+qxDcZ9oGze/48OyAauea+c9lcGaYA9OSASqFY+uS683Sf5HHW5VOzICnSWPo1y93o14vNrLLsWpM3QbOzwrSAcvmLPIYlv6qXQzZzMhqbgO2n8vAwNMIOp4WsjOg2ugChmlwLLEDObmtZ3djylD2OQAAVEYC27dpWz1GJeY/Sz/YKvi8W+z5ZE+N2NnKPu+PWJ8lu2+rjcpq0I8pX+HQXbqQbFxXP+okb2CQrEy1uaFjB5L3nk5bBb8Mtd8VGQAAAAAAMBWXfYABAXk/N+hndd/1MhxB/cCMbTdgxhYAAAAAzyhqBldSpWsyA1r3Gdu6yRvkoGZrj9N2R57BP4hMDvCPAjO2AAAAAAA1RgIstaZQgqzYpn5goEj6MeT9HMAB7XeyPtYEtU/t0ZHgFwMztgAAAAAAAAAAag1mbAEAAAAAAAAA1BoEtgAAAAAAAAAAag0CWwAAAAAAAAAAtQaBLQAAAAAAAACAWoPAFgAAAAAAAABArUFgCwAAAAAAAACg1iCwBQAAAAAAAABQaxDYAgAAAAAAAACoNQhsAQAAAAAAAADUGgS2AAAAAAAAAABqDQJbAAAAAAAAAAC1BoEtAAAAAAAAAIBag8AWAAAAAAAAAECtQWALAAAAAAAAAKDWILAFAAAAAAAAAFBrENgCAAAAAAAAAKg1CGwBAAAAAAAAANQaBLYAAAAAAAAAAGoNAlsAAAAAAAAAALUGgS0AAAAAAAAAgFqDwBYAAAAAAAAAQK1BYAsAAAAAAAAAoNYgsAUAAAAAAAAAUGsQ2AIAAAAAAAAAqDUIbAEAAAAAAAAA1BoEtgAAAAAAAAAAag0CWwAAAAAAAAAAtQaBLQAAAAAAAACAWoPAFgAAAAAAAABArUFgCwAAAAAAAACg1iCwBQAAAAAAAABQaxDYAgAAAAAAAACoNQhsAQAAAAAAAADUGgS2AAAAAAAAAABqDQJbAAAAAAAAAAC1BoEtAAAAAAAAAIBag8AWAAAAAAAAAECNIfr/86d8sNAa0GUAAAAASUVORK5CYII=;" vertex="1" parent="WIyWlLk6GJQsqaUBKTNV-1">
          <mxGeometry x="70" y="140" width="453.1" height="300" as="geometry" />
        </mxCell>
        <mxCell id="xkOVCTQS6KTug4YOY89h-3" value="" style="strokeWidth=2;html=1;shape=mxgraph.flowchart.annotation_2;align=left;labelPosition=right;pointerEvents=1;" vertex="1" parent="WIyWlLk6GJQsqaUBKTNV-1">
          <mxGeometry x="30" y="360" width="50" height="60" as="geometry" />
        </mxCell>
      </root>
    </mxGraphModel>
  </diagram>
  <diagram id="wnggh_J4pyU6B-sLwFpJ" name="MosaicHarvisting">
    <mxGraphModel dx="1825" dy="688" grid="1" gridSize="10" guides="1" tooltips="1" connect="1" arrows="1" fold="1" page="1" pageScale="1" pageWidth="827" pageHeight="1169" math="0" shadow="0">
      <root>
        <mxCell id="0" />
        <mxCell id="1" parent="0" />
        <mxCell id="bF5rLsyWgNrVxLq6qZCr-1" value="class Mosaic Harvesting" style="shape=umlFrame;whiteSpace=wrap;html=1;pointerEvents=0;" vertex="1" parent="1">
          <mxGeometry x="80" y="60" width="1180" height="1060" as="geometry" />
        </mxCell>
        <mxCell id="bF5rLsyWgNrVxLq6qZCr-7" value="MosaicHarvesting" style="swimlane;fontStyle=1;align=center;verticalAlign=top;childLayout=stackLayout;horizontal=1;startSize=26;horizontalStack=0;resizeParent=1;resizeParentMax=0;resizeLast=0;collapsible=1;marginBottom=0;whiteSpace=wrap;html=1;" vertex="1" parent="1">
          <mxGeometry x="930" y="560" width="210" height="112" as="geometry" />
        </mxCell>
        <mxCell id="bF5rLsyWgNrVxLq6qZCr-8" value="- originPic: png&lt;br&gt;" style="text;strokeColor=none;fillColor=none;align=left;verticalAlign=top;spacingLeft=4;spacingRight=4;overflow=hidden;rotatable=0;points=[[0,0.5],[1,0.5]];portConstraint=eastwest;whiteSpace=wrap;html=1;" vertex="1" parent="bF5rLsyWgNrVxLq6qZCr-7">
          <mxGeometry y="26" width="210" height="26" as="geometry" />
        </mxCell>
        <mxCell id="bF5rLsyWgNrVxLq6qZCr-11" value="- componentsPic: png" style="text;strokeColor=none;fillColor=none;align=left;verticalAlign=top;spacingLeft=4;spacingRight=4;overflow=hidden;rotatable=0;points=[[0,0.5],[1,0.5]];portConstraint=eastwest;whiteSpace=wrap;html=1;" vertex="1" parent="bF5rLsyWgNrVxLq6qZCr-7">
          <mxGeometry y="52" width="210" height="26" as="geometry" />
        </mxCell>
        <mxCell id="bF5rLsyWgNrVxLq6qZCr-9" value="" style="line;strokeWidth=1;fillColor=none;align=left;verticalAlign=middle;spacingTop=-1;spacingLeft=3;spacingRight=3;rotatable=0;labelPosition=right;points=[];portConstraint=eastwest;strokeColor=inherit;" vertex="1" parent="bF5rLsyWgNrVxLq6qZCr-7">
          <mxGeometry y="78" width="210" height="8" as="geometry" />
        </mxCell>
        <mxCell id="bF5rLsyWgNrVxLq6qZCr-10" value="+ method(type): type" style="text;strokeColor=none;fillColor=none;align=left;verticalAlign=top;spacingLeft=4;spacingRight=4;overflow=hidden;rotatable=0;points=[[0,0.5],[1,0.5]];portConstraint=eastwest;whiteSpace=wrap;html=1;" vertex="1" parent="bF5rLsyWgNrVxLq6qZCr-7">
          <mxGeometry y="86" width="210" height="26" as="geometry" />
        </mxCell>
      </root>
    </mxGraphModel>
  </diagram>
</mxfile>
